<?xml version="1.0" encoding="UTF-8" standalone="no"?>
<!DOCTYPE svg PUBLIC "-//W3C//DTD SVG 1.1//EN" "http://www.w3.org/Graphics/SVG/1.1/DTD/svg11.dtd">
<svg width="100%" height="100%" viewBox="0 0 987 447" version="1.1" xmlns="http://www.w3.org/2000/svg" xmlns:xlink="http://www.w3.org/1999/xlink" xml:space="preserve" xmlns:serif="http://www.serif.com/" style="fill-rule:evenodd;clip-rule:evenodd;stroke-linejoin:round;stroke-miterlimit:2;">
    <g transform="matrix(1.256084,0,0,1.97775,-1553.785,-1885.223945)">
        <path d="M2018.171,1000.137C2022.587,1011.527 2016.338,1040.326 2016.955,1057.3C2017.292,1066.583 2019.003,1076.071 2020.485,1085.073C2022.592,1097.875 2024.234,1109.697 2020.801,1118.555C2011.015,1143.797 1986.219,1169.529 1959.218,1171.509C1934.98,1173.286 1885.795,1171.59 1847.128,1171.59C1828.197,1171.59 1789.982,1174.562 1762.644,1174.558C1739.444,1174.554 1682.323,1172.651 1644.575,1172.403C1620.517,1172.245 1573.123,1168.987 1525.888,1168.861C1496.122,1168.781 1458.861,1177.258 1429.412,1177.557C1355.359,1178.307 1298.59,1171.509 1298.59,1171.509C1264.601,1171.509 1237.007,1147.781 1237.007,1118.555C1237.007,1118.555 1238.593,1100.492 1239.82,1082.45C1240.593,1071.07 1241.224,1059.698 1241.224,1052.871C1241.224,1039.463 1237.007,1012.647 1237.007,1012.647C1237.007,983.42 1264.601,959.692 1298.59,959.692C1298.59,959.692 1356.525,962.182 1385.493,962.182C1419.987,962.182 1465.527,957.589 1505.555,957.203C1548.562,956.788 1600.431,964.296 1646.431,964.671C1697.424,965.086 1759.385,956.374 1811.516,955.544C1860.744,954.76 1959.218,959.692 1959.218,959.692C1993.206,959.692 2008.386,974.894 2018.171,1000.137Z" style="fill:white;"/>
    </g>
</svg>
