<?xml version="1.0" encoding="UTF-8" standalone="no"?>
<!DOCTYPE svg PUBLIC "-//W3C//DTD SVG 1.1//EN" "http://www.w3.org/Graphics/SVG/1.1/DTD/svg11.dtd">
<svg width="100%" height="100%" viewBox="0 0 987 907" version="1.1" xmlns="http://www.w3.org/2000/svg" xmlns:xlink="http://www.w3.org/1999/xlink" xml:space="preserve" xmlns:serif="http://www.serif.com/" style="fill-rule:evenodd;clip-rule:evenodd;stroke-linejoin:round;stroke-miterlimit:2;">
    <g transform="matrix(2.021345,0,0,2.021345,-593.521694,-310.68813)">
        <path d="M512.763,153.704C512.763,153.704 414.165,155.163 357.187,251.089C300.209,347.015 308.772,423.807 323.288,476.118C341.163,540.529 398.298,574.207 398.298,574.207C398.298,574.207 512.255,654.265 658.668,544.636C805.08,435.007 754.593,310.953 754.593,310.953C754.593,310.953 741.611,275.611 709.155,259.744C676.699,243.877 675.977,245.319 652.898,222.961C629.818,200.602 610.344,178.965 582.937,168.146C555.53,157.327 545.726,155.129 512.763,153.704Z" style="fill:white;"/>
    </g>
</svg>
