<?xml version="1.0" encoding="utf-8"?>
<!-- Generator: Adobe Illustrator 27.8.1, SVG Export Plug-In . SVG Version: 6.00 Build 0)  -->
<svg version="1.1" id="Calque_1" xmlns="http://www.w3.org/2000/svg" xmlns:xlink="http://www.w3.org/1999/xlink" x="0px" y="0px"
	 viewBox="0 0 755.35 423.16" style="enable-background:new 0 0 755.35 423.16;" xml:space="preserve">
<style type="text/css">
	.st0{fill:#FFFFFF;}
	.st1{fill:#95C11F;}
	.st2{display:none;}
	.st3{display:none;fill:#95C11F;}
</style>
<g>
	<path class="st0" d="M342.18,184.03c6.44,0,12.55,1.25,18.33,3.75c5.78,2.5,10.84,5.91,15.18,10.25c4.34,4.34,7.78,9.4,10.35,15.18
		c2.56,5.78,3.84,12.02,3.84,18.72c0,6.57-1.25,12.71-3.75,18.43c-2.5,5.72-5.88,10.74-10.15,15.08c-4.27,4.34-9.3,7.75-15.08,10.25
		c-5.78,2.5-12.02,3.75-18.72,3.75c-6.57,0-12.75-1.18-18.53-3.55c-5.78-2.36-10.84-5.68-15.18-9.95
		c-4.34-4.27-7.75-9.29-10.25-15.08c-2.5-5.78-3.74-12.09-3.74-18.92c0-6.57,1.21-12.71,3.65-18.43
		c2.43-5.72,5.78-10.71,10.05-14.98c4.27-4.27,9.33-7.69,15.18-10.25C329.2,185.71,335.48,184.3,342.18,184.03z"/>
	<path class="st1" d="M342.18,283.82c-7.11,0-13.9-1.3-20.19-3.87c-6.29-2.57-11.87-6.23-16.59-10.89
		c-4.72-4.65-8.49-10.19-11.2-16.46c-2.72-6.3-4.1-13.25-4.1-20.66c0-7.14,1.35-13.92,4-20.15c2.64-6.21,6.33-11.71,10.99-16.36
		c4.64-4.64,10.2-8.4,16.52-11.17c6.31-2.77,13.18-4.32,20.41-4.6l0.17,0c7,0,13.75,1.38,20.07,4.1
		c6.27,2.71,11.84,6.47,16.54,11.18c4.69,4.69,8.48,10.25,11.26,16.5c2.8,6.32,4.22,13.22,4.22,20.5c0,7.14-1.38,13.93-4.11,20.18
		c-2.7,6.18-6.42,11.7-11.05,16.4c-4.65,4.73-10.19,8.49-16.47,11.2C356.33,282.44,349.44,283.82,342.18,283.82z M342.26,188.42
		c-6.1,0.25-11.87,1.55-17.15,3.87c-5.32,2.33-9.97,5.47-13.84,9.33c-3.85,3.85-6.92,8.43-9.12,13.59
		c-2.19,5.14-3.3,10.76-3.3,16.71c0,6.2,1.14,11.98,3.38,17.18c2.26,5.23,5.39,9.84,9.3,13.69c3.91,3.85,8.54,6.88,13.76,9.02
		c5.23,2.14,10.9,3.22,16.87,3.22c6.06,0,11.78-1.14,16.99-3.39c5.23-2.26,9.83-5.38,13.69-9.3c3.87-3.93,6.99-8.56,9.26-13.76
		c2.24-5.14,3.38-10.75,3.38-16.67c0-6.05-1.17-11.75-3.47-16.95c-2.33-5.26-5.51-9.92-9.44-13.85c-3.92-3.92-8.57-7.06-13.81-9.33
		C353.59,189.57,348.03,188.43,342.26,188.42z"/>
</g>
<rect x="54.3" y="327.58" class="st1" width="101.4" height="17.04"/>
<ellipse cx="284.58" cy="296.95" rx="15.93" ry="10.68"/>
<path d="M334.97,221.78c-2.39,0-4.62,0.44-6.7,1.32c-2.08,0.88-3.92,2.1-5.53,3.66c-1.61,1.56-2.88,3.4-3.82,5.53
	c-0.94,2.13-1.4,4.44-1.4,6.93c0,2.39,0.47,4.65,1.4,6.78c0.93,2.13,2.21,4,3.82,5.61c1.61,1.61,3.45,2.88,5.53,3.82
	c2.08,0.93,4.31,1.4,6.7,1.4c2.39,0,4.65-0.47,6.78-1.4c2.13-0.94,3.97-2.21,5.53-3.82c1.56-1.61,2.8-3.48,3.74-5.61
	c0.93-2.13,1.4-4.39,1.4-6.78c-0.21-4.78-1.92-8.83-5.14-12.15C344.06,223.75,339.95,221.99,334.97,221.78z"/>
<g>
	<path d="M531.55,285.21c-3.6,0-6.61-1.17-9.01-3.5c-2.4-2.33-3.74-5.44-4-9.31v-37.05c0.13-6.41,1.5-12.45,4.11-18.12
		c2.6-5.67,6.07-10.61,10.41-14.82c4.34-4.21,9.41-7.54,15.22-10.01c5.81-2.47,11.98-3.83,18.52-4.1c3.74,0,6.84,1.27,9.31,3.8
		c2.47,2.54,3.83,5.61,4.1,9.21c0,3.6-1.27,6.64-3.8,9.11c-2.54,2.47-5.67,3.77-9.41,3.9c-3.07,0-5.94,0.57-8.61,1.7
		c-2.67,1.14-5.01,2.7-7.01,4.71c-2,2-3.6,4.37-4.81,7.11c-1.2,2.74-1.8,5.71-1.8,8.91v36.44c-0.27,3.47-1.57,6.34-3.91,8.61
		C538.52,284.08,535.42,285.21,531.55,285.21z"/>
	<path d="M628.26,189.9c6.54,0,12.75,1.27,18.62,3.8c5.87,2.54,11.01,6.01,15.42,10.41c4.41,4.4,7.91,9.55,10.51,15.42
		c2.6,5.88,3.91,12.21,3.91,19.02c0,6.68-1.27,12.92-3.8,18.72c-2.54,5.81-5.98,10.91-10.31,15.32c-4.34,4.41-9.45,7.88-15.32,10.41
		c-5.88,2.53-12.22,3.8-19.02,3.8c-6.68,0-12.95-1.2-18.82-3.6c-5.88-2.4-11.01-5.77-15.42-10.11c-4.4-4.34-7.88-9.44-10.41-15.32
		c-2.54-5.87-3.8-12.28-3.8-19.22c0-6.67,1.23-12.91,3.7-18.72c2.47-5.81,5.87-10.88,10.21-15.22c4.34-4.34,9.48-7.81,15.42-10.41
		C615.08,191.6,621.45,190.17,628.26,189.9z M628.26,216.13c-3.07,0-5.94,0.57-8.61,1.7c-2.67,1.13-5.04,2.7-7.11,4.71
		c-2.07,2-3.7,4.37-4.91,7.11c-1.2,2.74-1.8,5.71-1.8,8.91c0,3.07,0.6,5.98,1.8,8.71c1.2,2.74,2.84,5.14,4.91,7.21
		c2.07,2.07,4.44,3.7,7.11,4.91c2.67,1.2,5.54,1.8,8.61,1.8c3.07,0,5.97-0.6,8.71-1.8c2.74-1.2,5.11-2.84,7.11-4.91
		c2-2.07,3.6-4.47,4.81-7.21c1.2-2.74,1.8-5.64,1.8-8.71c-0.27-6.14-2.47-11.35-6.61-15.62
		C639.94,218.67,634.67,216.4,628.26,216.13z"/>
</g>
<g>
	<path class="st0" d="M177.09,176.47c0,0-9.54-43.03-4.14-75.67c0,0,34.35,21.67,53.42,56.03L177.09,176.47z"/>
	<path class="st1" d="M173.92,182.45l-1.12-5.03c-0.4-1.79-9.66-44.24-4.19-77.33l1.08-6.52l5.59,3.53
		c1.44,0.91,35.53,22.67,54.92,57.62l2.42,4.36L173.92,182.45z M176.36,108.53c-2.33,23.62,1.95,50.84,4,61.91l39.65-15.8
		C206.28,132.2,186.14,115.73,176.36,108.53z"/>
</g>
<ellipse class="st1" cx="619" cy="167.53" rx="10.99" ry="13.95"/>
<ellipse transform="matrix(0.982 -0.1886 0.1886 0.982 -32.1168 136.0367)" class="st1" cx="698.66" cy="236.76" rx="13.95" ry="10.99"/>
<ellipse transform="matrix(0.322 -0.9468 0.9468 0.322 288.8736 736.4178)" class="st1" cx="658.57" cy="166.53" rx="21.61" ry="17.35"/>
<ellipse transform="matrix(0.866 -0.5 0.5 0.866 -4.4171 372.4522)" class="st1" cx="692.8" cy="194.47" rx="21.61" ry="17.35"/>
<g>
	<path d="M168.34,327.62h10.98v2.74h-7.95v4.47h7.49v2.74h-7.49v7.06h-3.03V327.62z"/>
	<path d="M191.3,336.2c0-1.36,0.22-2.6,0.67-3.71c0.45-1.11,1.07-2.06,1.86-2.85s1.74-1.39,2.83-1.81c1.1-0.42,2.3-0.64,3.61-0.64
		c1.33-0.02,2.55,0.18,3.65,0.59c1.1,0.41,2.06,1,2.86,1.79c0.8,0.79,1.42,1.73,1.87,2.83c0.45,1.11,0.67,2.34,0.67,3.7
		c0,1.33-0.22,2.54-0.67,3.63c-0.45,1.09-1.07,2.03-1.87,2.81c-0.8,0.79-1.75,1.4-2.86,1.84c-1.1,0.44-2.32,0.67-3.65,0.68
		c-1.31,0-2.52-0.21-3.61-0.64c-1.1-0.42-2.04-1.02-2.83-1.8c-0.79-0.78-1.41-1.71-1.86-2.8S191.3,337.53,191.3,336.2z
		 M194.47,336.01c0,0.91,0.14,1.75,0.42,2.52c0.28,0.77,0.68,1.43,1.19,1.99c0.51,0.56,1.12,1,1.84,1.32s1.51,0.48,2.39,0.48
		c0.88,0,1.68-0.16,2.4-0.48c0.72-0.32,1.34-0.76,1.85-1.32c0.51-0.56,0.91-1.22,1.19-1.99s0.42-1.61,0.42-2.52
		c0-0.85-0.14-1.64-0.42-2.38s-0.68-1.38-1.19-1.93c-0.51-0.55-1.13-0.99-1.85-1.3c-0.72-0.31-1.52-0.47-2.4-0.47
		c-0.88,0-1.68,0.16-2.39,0.47c-0.71,0.31-1.32,0.74-1.84,1.3c-0.51,0.55-0.91,1.2-1.19,1.93
		C194.61,334.36,194.47,335.16,194.47,336.01z"/>
	<path d="M222.31,327.62h5.91c0.82,0,1.6,0.08,2.37,0.23c0.76,0.15,1.44,0.41,2.03,0.78s1.06,0.86,1.42,1.49
		c0.35,0.62,0.53,1.42,0.53,2.38c0,1.23-0.34,2.27-1.02,3.1c-0.68,0.83-1.65,1.34-2.92,1.51l4.52,7.52h-3.65l-3.94-7.21h-2.21v7.21
		h-3.03V327.62z M227.69,334.83c0.43,0,0.86-0.02,1.3-0.06c0.43-0.04,0.83-0.14,1.19-0.29c0.36-0.15,0.65-0.38,0.88-0.7
		c0.22-0.31,0.34-0.75,0.34-1.31c0-0.5-0.1-0.9-0.31-1.2c-0.21-0.3-0.48-0.53-0.82-0.68c-0.34-0.15-0.71-0.25-1.12-0.3
		c-0.41-0.05-0.8-0.07-1.19-0.07h-2.62v4.61H227.69z"/>
	<path d="M247.6,327.62h4.61l4.54,11.91l4.59-11.91h4.56v17h-2.88V330.5h-0.05l-5.16,14.12h-2.11l-5.16-14.12h-0.05v14.12h-2.88
		V327.62z"/>
	<path d="M285.35,327.62h2.62l7.33,17h-3.46l-1.58-3.89h-7.37l-1.54,3.89h-3.39L285.35,327.62z M289.2,338.14l-2.62-6.92l-2.67,6.92
		H289.2z"/>
	<path d="M308.56,330.36h-5.21v-2.74h13.45v2.74h-5.21v14.27h-3.03V330.36z"/>
	<path d="M328.87,327.62h3.03v17h-3.03V327.62z"/>
	<path d="M344.8,336.2c0-1.36,0.22-2.6,0.67-3.71c0.45-1.11,1.07-2.06,1.86-2.85s1.74-1.39,2.83-1.81c1.1-0.42,2.3-0.64,3.61-0.64
		c1.33-0.02,2.55,0.18,3.65,0.59c1.1,0.41,2.06,1,2.86,1.79c0.8,0.79,1.42,1.73,1.87,2.83c0.45,1.11,0.67,2.34,0.67,3.7
		c0,1.33-0.22,2.54-0.67,3.63c-0.45,1.09-1.07,2.03-1.87,2.81c-0.8,0.79-1.75,1.4-2.86,1.84c-1.1,0.44-2.32,0.67-3.65,0.68
		c-1.31,0-2.52-0.21-3.61-0.64c-1.1-0.42-2.04-1.02-2.83-1.8c-0.79-0.78-1.41-1.71-1.86-2.8S344.8,337.53,344.8,336.2z
		 M347.97,336.01c0,0.91,0.14,1.75,0.42,2.52c0.28,0.77,0.68,1.43,1.19,1.99c0.51,0.56,1.12,1,1.84,1.32s1.51,0.48,2.39,0.48
		c0.88,0,1.68-0.16,2.4-0.48c0.72-0.32,1.34-0.76,1.85-1.32c0.51-0.56,0.91-1.22,1.19-1.99s0.42-1.61,0.42-2.52
		c0-0.85-0.14-1.64-0.42-2.38s-0.68-1.38-1.19-1.93c-0.51-0.55-1.13-0.99-1.85-1.3c-0.72-0.31-1.52-0.47-2.4-0.47
		c-0.88,0-1.68,0.16-2.39,0.47c-0.71,0.31-1.32,0.74-1.84,1.3c-0.51,0.55-0.91,1.2-1.19,1.93
		C348.11,334.36,347.97,335.16,347.97,336.01z"/>
	<path d="M375.81,327.62h4.01l8.24,12.63h0.05v-12.63h3.03v17h-3.84l-8.41-13.04h-0.05v13.04h-3.03V327.62z"/>
	<path d="M413.35,331.27c-0.32-0.46-0.75-0.8-1.28-1.02c-0.54-0.22-1.1-0.32-1.69-0.32c-0.35,0-0.69,0.04-1.02,0.12
		s-0.62,0.21-0.89,0.38c-0.26,0.18-0.48,0.4-0.64,0.68c-0.16,0.28-0.24,0.61-0.24,1c0,0.58,0.2,1.02,0.6,1.32
		c0.4,0.3,0.9,0.57,1.49,0.79c0.59,0.22,1.24,0.44,1.95,0.65c0.7,0.21,1.35,0.5,1.95,0.86c0.59,0.37,1.09,0.86,1.49,1.46
		c0.4,0.61,0.6,1.42,0.6,2.43c0,0.91-0.17,1.71-0.5,2.39c-0.34,0.68-0.79,1.25-1.36,1.69c-0.57,0.45-1.23,0.79-1.98,1.01
		c-0.75,0.22-1.54,0.34-2.38,0.34c-1.06,0-2.07-0.18-3.05-0.53c-0.98-0.35-1.82-0.95-2.52-1.78l2.28-2.21
		c0.37,0.56,0.85,1,1.45,1.31c0.6,0.31,1.24,0.47,1.91,0.47c0.35,0,0.71-0.05,1.06-0.14c0.35-0.1,0.67-0.24,0.96-0.43
		c0.29-0.19,0.52-0.44,0.7-0.73c0.18-0.3,0.26-0.64,0.26-1.02c0-0.62-0.2-1.1-0.6-1.44c-0.4-0.34-0.9-0.62-1.49-0.85
		c-0.59-0.23-1.24-0.45-1.95-0.66c-0.71-0.21-1.35-0.49-1.95-0.85c-0.59-0.36-1.09-0.84-1.49-1.44s-0.6-1.41-0.6-2.41
		c0-0.88,0.18-1.64,0.54-2.28c0.36-0.64,0.83-1.17,1.42-1.6c0.58-0.42,1.25-0.74,2-0.95s1.52-0.31,2.31-0.31
		c0.9,0,1.77,0.14,2.61,0.41c0.84,0.27,1.6,0.72,2.27,1.35L413.35,331.27z"/>
	<path d="M451.58,327.62h2.62l7.33,17h-3.46l-1.59-3.89h-7.37l-1.54,3.89h-3.39L451.58,327.62z M455.43,338.14l-2.62-6.92
		l-2.67,6.92H455.43z"/>
	<path d="M473.51,327.62h4.01l8.24,12.63h0.05v-12.63h3.03v17h-3.84l-8.41-13.04h-0.05v13.04h-3.03V327.62z"/>
	<path d="M502.64,327.62h3.03v17h-3.03V327.62z"/>
	<path d="M519.55,327.62h4.61l4.54,11.91l4.59-11.91h4.56v17h-2.88V330.5h-0.05l-5.16,14.12h-2.11l-5.16-14.12h-0.05v14.12h-2.88
		V327.62z"/>
	<path d="M557.31,327.62h2.62l7.33,17h-3.46l-1.59-3.89h-7.37l-1.54,3.89h-3.39L557.31,327.62z M561.15,338.14l-2.62-6.92
		l-2.67,6.92H561.15z"/>
	<path d="M579.24,327.62h3.03v14.27h7.23v2.74h-10.26V327.62z"/>
	<path d="M601.72,327.62h3.03v17h-3.03V327.62z"/>
	<path d="M618.56,327.62h11.26v2.74h-8.24v4.18h7.81v2.74h-7.81v4.61h8.67v2.74h-11.7V327.62z M625.14,326.47h-2.26l-3.39-3.46h3.27
		L625.14,326.47z"/>
	<path d="M643.32,327.62h5.91c0.82,0,1.61,0.08,2.37,0.23c0.76,0.15,1.44,0.41,2.03,0.78s1.06,0.86,1.42,1.49
		c0.35,0.62,0.53,1.42,0.53,2.38c0,1.23-0.34,2.27-1.02,3.1c-0.68,0.83-1.65,1.34-2.92,1.51l4.52,7.52h-3.65l-3.94-7.21h-2.21v7.21
		h-3.03V327.62z M648.7,334.83c0.43,0,0.87-0.02,1.3-0.06c0.43-0.04,0.83-0.14,1.19-0.29s0.65-0.38,0.88-0.7
		c0.22-0.31,0.34-0.75,0.34-1.31c0-0.5-0.1-0.9-0.31-1.2c-0.21-0.3-0.48-0.53-0.82-0.68c-0.34-0.15-0.71-0.25-1.12-0.3
		s-0.8-0.07-1.19-0.07h-2.62v4.61H648.7z"/>
	<path d="M668.54,327.62h11.26v2.74h-8.24v4.18h7.81v2.74h-7.81v4.61h8.67v2.74h-11.7V327.62z"/>
	<path d="M701.64,331.27c-0.32-0.46-0.75-0.8-1.28-1.02c-0.54-0.22-1.1-0.32-1.69-0.32c-0.35,0-0.69,0.04-1.02,0.12
		s-0.62,0.21-0.89,0.38c-0.26,0.18-0.48,0.4-0.64,0.68c-0.16,0.28-0.24,0.61-0.24,1c0,0.58,0.2,1.02,0.6,1.32
		c0.4,0.3,0.9,0.57,1.49,0.79c0.59,0.22,1.24,0.44,1.95,0.65c0.7,0.21,1.35,0.5,1.95,0.86c0.59,0.37,1.09,0.86,1.49,1.46
		c0.4,0.61,0.6,1.42,0.6,2.43c0,0.91-0.17,1.71-0.5,2.39c-0.34,0.68-0.79,1.25-1.36,1.69c-0.57,0.45-1.23,0.79-1.98,1.01
		c-0.75,0.22-1.54,0.34-2.38,0.34c-1.06,0-2.07-0.18-3.05-0.53c-0.98-0.35-1.82-0.95-2.52-1.78l2.28-2.21
		c0.37,0.56,0.85,1,1.45,1.31c0.6,0.31,1.24,0.47,1.91,0.47c0.35,0,0.71-0.05,1.06-0.14c0.35-0.1,0.67-0.24,0.96-0.43
		c0.29-0.19,0.52-0.44,0.7-0.73c0.18-0.3,0.26-0.64,0.26-1.02c0-0.62-0.2-1.1-0.6-1.44c-0.4-0.34-0.9-0.62-1.49-0.85
		c-0.59-0.23-1.24-0.45-1.95-0.66c-0.71-0.21-1.35-0.49-1.95-0.85c-0.59-0.36-1.09-0.84-1.49-1.44s-0.6-1.41-0.6-2.41
		c0-0.88,0.18-1.64,0.54-2.28c0.36-0.64,0.83-1.17,1.42-1.6c0.58-0.42,1.25-0.74,2-0.95s1.52-0.31,2.31-0.31
		c0.9,0,1.77,0.14,2.61,0.41c0.84,0.27,1.6,0.72,2.27,1.35L701.64,331.27z"/>
</g>
<g>
	<path class="st1" d="M291.35,219.17c-2.39-1.35-5.2-2-7.7-1.79c-1.57,0.13-3.55,0.75-5.28,1.66l-3.54-6.76
		c2.63-1.38,5.61-2.29,8.19-2.51c4.05-0.34,8.34,0.64,12.08,2.75L291.35,219.17z"/>
</g>
<g>
	<path d="M147.99,176.47c3.82,0,7.12,1.4,9.91,4.18c2.79,3.08,4.18,6.38,4.18,9.91c0,3.96-1.4,7.34-4.18,10.13
		c-0.74,0.74-1.47,1.47-2.2,2.2c-0.74,0.74-1.47,1.47-2.2,2.2c-8.22,8.22-16.4,16.4-24.55,24.55c-8.15,8.15-16.4,16.33-24.77,24.55
		h43.81c3.67,0.15,6.97,1.62,9.91,4.4c2.79,3.08,4.18,6.53,4.18,10.35c0,3.52-1.4,6.83-4.18,9.91c-3.08,2.79-6.39,4.18-9.91,4.18
		h-0.66H75.56h-5.5h-0.66c-3.82,0-7.12-1.39-9.91-4.18c-2.94-2.93-4.33-6.24-4.18-9.91c-0.3-3.96,1.03-7.26,3.96-9.91l53.72-53.94
		H70.05h-0.66c-3.96-0.29-7.27-1.76-9.91-4.4c-3.08-2.79-4.48-6.16-4.18-10.13c-0.15-3.67,1.25-6.97,4.18-9.91
		c2.64-2.79,5.95-4.18,9.91-4.18H147.99z"/>
	<path d="M226.37,178.45c7.19,0,14.02,1.4,20.48,4.18c6.46,2.79,12.11,6.61,16.95,11.45c4.84,4.84,8.7,10.5,11.56,16.95
		c2.86,6.46,4.29,13.43,4.29,20.92c0,7.34-1.4,14.2-4.18,20.58c-2.79,6.39-6.57,12-11.34,16.84c-4.77,4.84-10.39,8.66-16.84,11.45
		c-6.46,2.79-13.43,4.18-20.92,4.18c-7.34,0-14.24-1.32-20.7-3.96c-6.46-2.64-12.11-6.35-16.95-11.12
		c-4.84-4.77-8.66-10.38-11.45-16.84c-2.79-6.46-4.18-13.5-4.18-21.14c0-7.34,1.36-14.2,4.07-20.59
		c2.71-6.38,6.46-11.96,11.23-16.73c4.77-4.77,10.42-8.59,16.95-11.45C211.87,180.32,218.89,178.75,226.37,178.45z M233.89,222.4
		c-2.35,0-4.54,0.44-6.58,1.3c-2.04,0.87-3.85,2.07-5.43,3.6c-1.58,1.53-2.83,3.34-3.75,5.43c-0.92,2.09-1.38,4.36-1.38,6.81
		c0,2.35,0.46,4.57,1.38,6.66c0.92,2.09,2.17,3.93,3.75,5.51c1.58,1.58,3.39,2.83,5.43,3.75c2.04,0.92,4.23,1.38,6.58,1.38
		c2.35,0,4.56-0.46,6.66-1.38c2.09-0.92,3.9-2.17,5.43-3.75c1.53-1.58,2.75-3.42,3.67-5.51c0.92-2.09,1.38-4.31,1.38-6.66
		c-0.21-4.69-1.89-8.67-5.05-11.94C242.82,224.34,238.79,222.61,233.89,222.4z"/>
</g>
<g>
	<g>
		<path d="M355.1,82.69c2.8-9.19,4.22-15.51,7.62-23.46c1.04,1.67,3.84,0.99,5,2.57c1.62,2.2,3.31,4.34,5.09,6.4
			c3.67,4.26,7.65,8.26,11.89,11.97c6.73,5.89,14.04,11.13,21.8,15.58c-0.24,0.81-0.48,1.63-0.73,2.44
			c-13.59,44.5-35.95,77.1-49.94,72.82C341.84,166.73,341.51,127.19,355.1,82.69z"/>
		<path class="st1" d="M361.43,87.3c2.48-8.13,5.41-15.71,8.54-22.55c0.93,1.17,1.87,2.33,2.85,3.46
			c3.67,4.26,7.65,8.26,11.89,11.97c4.66,4.08,9.6,7.85,14.78,11.26c-0.6,2.28-1.26,4.59-1.96,6.9
			c-11.03,36.13-28.05,62.95-38.02,59.9C349.54,155.19,350.4,123.43,361.43,87.3z"/>
	</g>
	<path class="st1" d="M361.31,86.81c2.48-8.13,5.41-15.71,8.53-22.55c0.93,1.17,1.87,2.33,2.85,3.46
		c3.67,4.27,7.65,8.26,11.89,11.97c4.66,4.08,9.6,7.85,14.78,11.26c-0.6,2.28-1.26,4.59-1.96,6.9
		c-11.03,36.13-28.05,62.95-38.02,59.9C349.41,154.7,350.28,122.94,361.31,86.81z"/>
	<g>
		<path d="M362.19,63.39c-0.5,9.25-0.1,12.23,0.36,18.68c2.69,37.69,16.42,67.41,30.65,66.38c14.24-1.02,23.59-32.41,20.9-70.09
			c-0.47-6.61-0.85-8.9-2.38-18.97C410.2,49.32,360.56,44.03,362.19,63.39z"/>
	</g>
</g>
<path d="M508.02,217.93c-2.6-5.87-6.11-11.01-10.51-15.42c-4.4-4.41-9.55-7.88-15.42-10.41c-5.88-2.53-12.08-3.8-18.62-3.8
	c-6.68,0-12.95,1.3-18.82,3.9c-5.88,2.6-11.01,6.11-15.42,10.51c-4.41,4.4-7.91,9.55-10.51,15.42c-2.6,5.88-3.91,12.08-3.91,18.62
	v74.28h26.23v-30.82c6.67,3.34,14.15,5.01,22.43,5.01c6.81,0,13.18-1.27,19.12-3.8c5.94-2.53,11.08-6.01,15.42-10.41
	c4.34-4.4,7.74-9.54,10.21-15.42c2.47-5.87,3.7-12.15,3.7-18.82C511.92,230.08,510.62,223.81,508.02,217.93z M483.99,245.47
	c-1.14,2.74-2.7,5.14-4.71,7.21c-2,2.07-4.34,3.7-7.01,4.91c-2.67,1.2-5.61,1.8-8.81,1.8c-2.94,0-5.78-0.57-8.51-1.7
	c-2.74-1.13-5.14-2.7-7.21-4.71c-2.07-2-3.7-4.37-4.91-7.11c-1.2-2.73-1.8-5.77-1.8-9.11c0-3.07,0.57-5.94,1.7-8.61
	c1.13-2.67,2.7-5.01,4.71-7.01c2-2,4.37-3.6,7.11-4.81c2.74-1.2,5.71-1.8,8.91-1.8c3.07,0,5.94,0.57,8.61,1.7
	c2.67,1.14,5.01,2.7,7.01,4.71c2,2,3.6,4.37,4.81,7.11c1.2,2.74,1.8,5.64,1.8,8.71C485.69,239.83,485.12,242.73,483.99,245.47z"/>
<rect x="41.71" y="546.21" class="st2" width="37.41" height="37.41"/>
<rect x="260.47" y="546.21" class="st3" width="37.41" height="37.41"/>
<rect x="94.75" y="550.23" style="fill:none;" width="146.84" height="62.52"/>
<text transform="matrix(1 0 0 1 94.7521 558.7519)" class="st2"><tspan x="0" y="0" style="display:inline; font-family:'MyriadPro-Bold'; font-size:12px;">Noir :</tspan><tspan x="0" y="14.4" style="display:inline; font-family:'MyriadPro-Regular'; font-size:12px;">C 33 - M 31 - J 0 - N 100</tspan><tspan x="0" y="28.8" style="display:inline; font-family:'MyriadPro-Regular'; font-size:12px;">R 17 - V 14 - B 23</tspan><tspan x="0" y="43.2" style="display:inline; font-family:'MyriadPro-Regular'; font-size:12px;">Web : #110e17</tspan></text>
<rect x="313.51" y="550.23" style="fill:none;" width="146.84" height="74.4"/>
<text transform="matrix(1 0 0 1 313.5069 558.7519)" class="st2"><tspan x="0" y="0" style="display:inline; font-family:'MyriadPro-Bold'; font-size:12px;">Vert :</tspan><tspan x="0" y="14.4" style="display:inline; font-family:'MyriadPro-Regular'; font-size:12px;">C 50 - M 0- J 100 - N 0</tspan><tspan x="0" y="28.8" style="display:inline; font-family:'MyriadPro-Regular'; font-size:12px;">R 149 - V 193 - B 31</tspan><tspan x="0" y="43.2" style="display:inline; font-family:'MyriadPro-Regular'; font-size:12px;">Web : #95c11f</tspan></text>
</svg>
