<?xml version="1.0" encoding="UTF-8" standalone="no"?>
<!DOCTYPE svg PUBLIC "-//W3C//DTD SVG 1.1//EN" "http://www.w3.org/Graphics/SVG/1.1/DTD/svg11.dtd">
<svg width="100%" height="100%" viewBox="0 0 788 510" version="1.1" xmlns="http://www.w3.org/2000/svg" xmlns:xlink="http://www.w3.org/1999/xlink" xml:space="preserve" xmlns:serif="http://www.serif.com/" style="fill-rule:evenodd;clip-rule:evenodd;stroke-linejoin:round;stroke-miterlimit:2;">
    <g transform="matrix(2.923313,0,0,2.923313,-1229.507069,-747.108603)">
        <g transform="matrix(0.998361,-0.057234,0.057234,0.998361,-24.894994,-5.601146)">
            <path d="M481.92,403.656C481.858,404.39 481.767,405.154 481.645,405.948C481.522,406.743 481.308,407.476 481.003,408.148C480.697,408.881 480.3,409.431 479.811,409.798C479.139,410.409 478.345,410.745 477.428,410.806C476.572,411.112 475.747,411.204 474.953,411.081C474.158,410.959 473.425,410.745 472.753,410.44C471.897,409.89 471.271,409.233 470.874,408.469C470.477,407.705 470.186,406.895 470.003,406.04C469.82,405.184 469.728,404.298 469.728,403.381L469.728,393.665L469.636,379.64L469.636,375.836C469.636,375.377 469.621,374.858 469.59,374.277C469.56,373.697 469.545,372.856 469.545,371.756C469.545,371.573 469.56,371.252 469.59,370.794C469.621,370.336 469.575,369.098 469.453,367.081C467.07,371.054 465.099,374.247 463.54,376.661C461.982,379.074 460.668,380.938 459.599,382.252C458.529,383.566 457.597,384.452 456.803,384.911C456.008,385.369 455.183,385.629 454.328,385.69C453.839,385.751 453.35,385.659 452.861,385.415C452.372,385.17 451.899,384.865 451.44,384.498C450.982,384.131 450.554,383.749 450.157,383.352C449.76,382.955 449.439,382.573 449.195,382.206C447.728,380.373 446.078,378.173 444.245,375.606C442.411,373.04 440.517,369.923 438.561,366.256C438.561,366.318 438.546,367.326 438.515,369.281C438.485,371.237 438.47,373.666 438.47,376.569C438.47,379.472 438.454,382.588 438.424,385.919C438.393,389.249 438.363,392.351 438.332,395.223C438.302,398.095 438.256,400.494 438.195,402.419C438.133,404.344 438.072,405.306 438.011,405.306C438.011,406.345 437.767,407.308 437.278,408.194C436.789,409.08 436.132,409.798 435.307,410.348C434.482,410.898 433.52,411.204 432.42,411.265C431.32,411.326 430.128,411.02 428.845,410.348C428.05,409.859 427.454,409.156 427.057,408.24C426.66,407.323 426.4,406.468 426.278,405.673C426.217,404.818 426.171,403.993 426.14,403.198C426.11,402.404 426.095,401.579 426.095,400.723L426.186,393.573L426.278,379.456L426.278,367.173C426.278,361.856 426.461,356.631 426.828,351.498C426.828,350.826 426.904,350.199 427.057,349.619C427.21,349.038 427.408,348.473 427.653,347.923C428.142,346.945 428.783,346.212 429.578,345.723C430.495,345.173 431.472,344.898 432.511,344.898C432.939,344.898 433.352,344.913 433.749,344.944C434.146,344.974 434.528,345.02 434.895,345.081C436.117,345.326 437.171,346.044 438.057,347.236C438.943,348.427 439.783,349.451 440.578,350.306C441.067,350.856 441.586,351.529 442.136,352.323C442.686,353.118 443.236,353.943 443.786,354.798C444.336,355.654 444.856,356.479 445.345,357.273C445.833,358.068 446.261,358.77 446.628,359.381C448.217,361.948 449.638,364.301 450.89,366.44C452.143,368.579 453.32,370.412 454.42,371.94C454.603,371.756 454.817,371.497 455.061,371.161C455.306,370.824 455.565,370.458 455.84,370.061C456.115,369.663 456.36,369.281 456.574,368.915C456.788,368.548 456.956,368.243 457.078,367.998C457.689,367.02 458.3,366.058 458.911,365.111C459.522,364.163 460.179,363.155 460.882,362.086C461.585,361.016 462.318,359.84 463.082,358.556C463.846,357.273 464.747,355.806 465.786,354.156C466.214,353.423 466.764,352.537 467.436,351.498C468.108,350.459 468.872,349.451 469.728,348.473C470.583,347.495 471.485,346.655 472.432,345.952C473.379,345.249 474.342,344.898 475.32,344.898C475.808,344.898 476.236,344.913 476.603,344.944C476.97,344.974 477.336,345.02 477.703,345.081C478.436,345.143 479.139,345.479 479.811,346.09C480.3,346.579 480.667,347.098 480.911,347.648C481.156,348.443 481.308,349.115 481.37,349.665C481.431,350.093 481.477,350.49 481.507,350.856C481.538,351.223 481.553,351.59 481.553,351.956C481.553,355.379 481.583,358.77 481.645,362.131C481.706,365.493 481.736,368.884 481.736,372.306C481.736,376.462 481.752,380.74 481.782,385.14C481.813,389.54 481.828,393.818 481.828,397.973C481.828,398.829 481.858,399.745 481.92,400.723C481.981,401.701 481.981,402.679 481.92,403.656Z" style="fill:rgb(28,58,74);fill-rule:nonzero;stroke:rgb(28,58,74);stroke-width:1.21px;"/>
        </g>
        <g transform="matrix(0.999041,-0.043791,0.043791,0.999041,-19.567249,-13.412907)">
            <path d="M500.07,371.665C501.903,370.748 503.828,370.091 505.845,369.694C507.861,369.297 509.863,369.205 511.849,369.419C513.835,369.633 515.745,370.152 517.578,370.977C519.411,371.802 521.122,372.979 522.711,374.506C524.3,376.095 525.522,377.837 526.378,379.731C527.233,381.626 527.845,383.734 528.211,386.056C528.456,387.645 528.853,389.112 529.403,390.456C529.953,391.801 530.549,393.145 531.19,394.49C531.832,395.834 532.443,397.179 533.024,398.523C533.604,399.868 534.078,401.273 534.445,402.74C534.75,404.145 534.643,405.505 534.124,406.819C533.604,408.133 532.55,408.943 530.961,409.248C530.045,409.431 529.174,409.355 528.349,409.019C527.524,408.683 526.775,408.194 526.103,407.552C525.431,406.911 524.835,406.208 524.315,405.444C523.796,404.68 523.322,403.962 522.895,403.29C521.489,405.123 519.961,406.544 518.311,407.552C516.661,408.561 514.675,409.218 512.353,409.523C510.397,409.768 508.533,409.829 506.761,409.706C504.989,409.584 503.095,409.248 501.078,408.698C498.45,408.026 496.296,406.849 494.615,405.169C492.935,403.488 491.652,401.533 490.765,399.302C489.879,397.072 489.406,394.673 489.345,392.106C489.283,389.54 489.589,387.004 490.261,384.498C491.117,381.198 492.4,378.509 494.111,376.431C495.822,374.354 497.808,372.765 500.07,371.665ZM502.361,382.39C501.506,383.245 500.833,384.254 500.345,385.415C499.856,386.576 499.565,387.798 499.474,389.081C499.382,390.365 499.489,391.648 499.795,392.931C500.1,394.215 500.589,395.345 501.261,396.323C501.872,397.179 502.911,397.897 504.378,398.477C505.845,399.058 507.372,399.409 508.961,399.531C510.795,399.654 512.399,399.165 513.774,398.065C515.149,396.965 516.188,395.574 516.89,393.894C517.593,392.213 517.914,390.411 517.853,388.486C517.792,386.561 517.272,384.804 516.295,383.215C515.561,382.054 514.599,381.198 513.407,380.648C512.215,380.098 510.947,379.808 509.603,379.777C508.258,379.747 505.615,380.419 505.615,380.419C505.615,380.419 503.217,381.534 502.361,382.39Z" style="fill:rgb(28,58,74);fill-rule:nonzero;stroke:rgb(28,58,74);stroke-width:1.21px;"/>
        </g>
        <g transform="matrix(1,0,0,1,0,-39.206744)">
            <path d="M591.736,388.898C591.858,390.854 591.92,392.702 591.92,394.444C591.92,396.186 591.858,398.034 591.736,399.99L591.736,402.465C591.736,403.381 591.675,404.268 591.553,405.123C591.431,405.979 591.217,406.773 590.911,407.506C590.606,408.24 590.147,408.82 589.536,409.248C588.803,409.737 587.978,410.058 587.061,410.211C586.145,410.363 585.289,410.318 584.495,410.073C583.7,409.829 583.013,409.37 582.432,408.698C581.852,408.026 581.531,407.079 581.47,405.856C581.286,403.045 581.195,400.234 581.195,397.423C581.195,396.018 581.179,394.673 581.149,393.39C581.118,392.106 581.133,390.304 581.195,387.981C581.195,386.82 581.103,385.491 580.92,383.994C580.736,382.497 580.278,381.443 579.545,380.831C578.995,380.343 578.383,380.052 577.711,379.961C577.039,379.869 576.382,379.945 575.74,380.19C575.099,380.434 574.533,380.877 574.045,381.519C573.556,382.161 573.22,382.97 573.036,383.948C573.036,384.743 573.021,385.552 572.99,386.377C572.96,387.202 572.975,387.981 573.036,388.715C573.097,390.67 573.128,392.519 573.128,394.261C573.128,396.002 573.097,397.851 573.036,399.806C572.975,400.601 572.96,401.456 572.99,402.373C573.021,403.29 573.006,404.191 572.945,405.077C572.883,405.963 572.715,406.773 572.44,407.506C572.165,408.24 571.692,408.82 571.02,409.248C570.286,409.737 569.507,410.027 568.682,410.119C567.857,410.211 567.093,410.088 566.39,409.752C565.688,409.416 565.077,408.881 564.557,408.148C564.038,407.415 563.747,406.437 563.686,405.215C563.564,403.809 563.488,402.511 563.457,401.319C563.427,400.127 563.411,398.859 563.411,397.515C563.411,396.109 563.442,394.658 563.503,393.161C563.564,391.663 563.533,390.212 563.411,388.806C563.411,388.379 563.396,387.874 563.365,387.294C563.335,386.713 563.304,386.118 563.274,385.506C563.243,384.895 563.182,384.299 563.09,383.719C562.999,383.138 562.861,382.665 562.678,382.298C562.189,381.443 561.318,380.893 560.065,380.648C558.813,380.404 557.758,380.495 556.903,380.923C556.047,381.351 555.406,381.901 554.978,382.573C554.55,383.245 554.245,383.979 554.061,384.773C553.878,385.568 553.786,386.408 553.786,387.294L553.786,389.815C553.786,393.787 553.802,397.224 553.832,400.127C553.863,403.03 553.542,405.368 552.87,407.14C552.564,408.056 551.938,408.759 550.99,409.248C550.043,409.737 549.035,409.981 547.965,409.981C546.896,409.981 545.903,409.737 544.986,409.248C544.07,408.759 543.458,407.995 543.153,406.956C542.97,406.284 542.802,405.322 542.649,404.069C542.496,402.816 542.389,401.426 542.328,399.898C542.267,398.37 542.236,396.827 542.236,395.269L542.236,377.806C542.175,376.401 542.145,374.873 542.145,373.223C542.145,371.573 542.389,370.076 542.878,368.731C543.306,367.57 543.978,366.822 544.895,366.486C545.811,366.149 546.758,366.012 547.736,366.073C548.836,366.073 549.707,366.363 550.349,366.944C550.99,367.524 551.464,368.227 551.77,369.052C552.075,369.877 552.258,370.794 552.32,371.802C552.381,372.811 552.442,373.773 552.503,374.69C553.175,373.162 553.985,371.894 554.932,370.886C555.879,369.877 557.239,369.22 559.011,368.915C563.533,368.059 567.139,369.22 569.828,372.398C571.05,371.176 572.608,370.168 574.503,369.373C575.97,368.823 577.467,368.563 578.995,368.594C580.522,368.624 581.974,368.915 583.349,369.465C584.724,370.015 585.977,370.809 587.107,371.848C588.238,372.887 589.139,374.14 589.811,375.606C590.728,377.562 591.247,379.731 591.37,382.115C591.492,384.498 591.614,386.759 591.736,388.898Z" style="fill:rgb(28,58,74);fill-rule:nonzero;stroke:rgb(28,58,74);stroke-width:1.21px;"/>
        </g>
        <g transform="matrix(0.99705,0.076751,-0.076751,0.99705,34.94601,-82.32793)">
            <path d="M599.305,350.618C599.427,348.418 600.115,346.646 601.367,345.301C602.62,343.957 604.408,343.59 606.73,344.201C607.83,344.507 608.64,344.965 609.159,345.576C609.679,346.187 610.045,346.905 610.259,347.73C610.473,348.555 610.58,349.441 610.58,350.389L610.58,353.184L610.711,367.54C610.65,368.029 610.635,368.502 610.665,368.961C610.696,369.419 610.711,369.831 610.711,370.198L610.711,371.39L614.974,371.39C615.615,371.39 616.181,371.359 616.67,371.298C620.031,371.298 622.918,371.787 625.332,372.765C627.746,373.743 629.702,375.102 631.199,376.844C632.696,378.586 633.796,380.663 634.499,383.077C635.202,385.491 635.522,388.134 635.461,391.006C635.4,394.429 634.85,397.362 633.811,399.806C632.772,402.251 631.306,404.268 629.411,405.856C627.517,407.445 625.24,408.622 622.582,409.386C619.924,410.149 616.945,410.531 613.645,410.531C609.856,410.531 606.983,410.501 605.028,410.44C603.072,410.379 601.682,409.829 600.857,408.79C600.032,407.751 599.589,405.948 599.528,403.381C599.467,400.815 599.436,397.056 599.436,392.106C599.436,387.34 599.452,382.634 599.482,377.99C599.513,373.345 599.497,368.67 599.436,363.965C599.436,363.354 599.421,362.712 599.39,362.04C599.36,361.368 599.345,360.604 599.345,359.748L599.345,356.677C599.345,355.486 599.244,352.329 599.305,350.618ZM616.578,400.265C619.939,400.081 622.261,399.165 623.545,397.515C624.217,396.598 624.736,395.498 625.103,394.215C625.47,392.931 625.622,391.648 625.561,390.365C625.5,389.081 625.24,387.844 624.782,386.652C624.324,385.461 623.606,384.468 622.628,383.673C621.772,382.94 620.917,382.405 620.061,382.069C619.206,381.733 618.32,381.519 617.403,381.427C616.486,381.336 615.508,381.305 614.47,381.336C613.431,381.366 612.239,381.412 610.895,381.473L610.895,392.473L610.711,400.081C611.322,400.143 611.964,400.204 612.636,400.265C613.797,400.387 615.111,400.387 616.578,400.265Z" style="fill:rgb(27,57,74);fill-rule:nonzero;stroke:rgb(27,57,74);stroke-width:1.21px;"/>
        </g>
        <g transform="matrix(1.50876,0,0,1.50876,280.635524,166.343051)">
            <g transform="matrix(0.242179,0,0,0.242179,164.996884,53.968839)">
                <path d="M170.664,133.934C170.014,133.456 156.088,123.322 145.362,125.408C134.377,127.544 127.742,125.364 121.334,121.703C121.334,121.703 103.004,103.104 102.379,99.354C101.754,95.605 107.253,85.856 106.378,82.357C105.503,78.857 101.879,69.234 97.754,68.609C93.63,67.984 89.506,71.234 88.756,73.733C88.006,76.233 88.506,83.107 87.631,85.606C86.756,88.106 84.881,93.23 85.381,98.104C85.881,102.979 89.506,109.915 89.881,113.415C90.256,116.914 90.256,121.538 90.63,123.163C90.63,123.163 75.82,122.538 62.197,127.412C62.197,127.412 53.949,130.912 52.074,131.912L49.106,128.662C49.106,128.662 46.981,126.038 48.231,124.038C49.481,122.038 53.73,114.914 53.73,114.914C53.73,114.914 56.355,111.29 55.355,108.165C54.355,105.041 49.981,102.541 48.231,102.416C46.481,102.291 44.356,104.166 42.607,106.041C40.857,107.915 40.607,111.29 39.232,113.789C37.857,116.289 34.858,123.288 35.358,125.788C35.858,128.287 36.733,133.411 35.108,138.036C33.483,142.66 29.834,142.911 28.613,150.234C27.393,157.558 27.088,161.524 29.834,167.932C30.079,168.503 30.39,169.4 30.403,169.429C41.629,193.422 65.031,190.703 69.077,193.706C69.345,191.529 110.77,190.583 110.908,191.151C111.654,190.687 112.103,190.4 112.103,190.4C112.103,190.4 112.625,190.458 113.545,190.57C112.696,190.461 112.17,190.393 112.17,190.393C112.17,190.393 190.073,200.392 195.718,201.202C195.722,200.974 195.725,200.745 195.727,200.514C195.745,198.738 195.829,196.762 195.978,194.587C194.64,192.982 196.221,176.128 197.427,177.217C197.663,175.062 197.944,172.73 198.271,170.219C198.684,167.629 199.456,165.261 200.586,163.113C200.777,153.688 209.767,147.66 199.019,144.563C185.74,140.737 188.561,147.65 186.945,140.933C185.596,135.325 167.611,135.488 170.664,133.934Z" style="fill:rgb(210,132,82);"/>
            </g>
            <g transform="matrix(0.242179,0,0,0.242179,164.996884,53.968839)">
                <path d="M247.56,204.776C264.736,207.599 284.453,210.438 289.992,209.623C300.367,208.097 318.674,200.164 319.59,194.062C320.505,187.959 324.167,184.297 316.844,184.297C311.802,184.297 302.899,188.861 297.451,190.173C293.094,191.221 284.118,192.203 284.156,192.165C280.588,192.546 276.361,192.921 272.295,192.841C264.881,192.696 256.566,193.104 248.44,193.341L247.56,204.776Z" style="fill:rgb(210,132,82);"/>
            </g>
            <g transform="matrix(0.242179,0,0,0.242179,164.996884,53.968839)">
                <path d="M97.435,197.895C95.643,198.445 93.672,198.957 91.945,199.191C87.32,199.816 81.821,198.941 81.821,198.941C81.821,198.941 77.197,207.939 73.198,206.315C71.206,205.506 69.662,201.191 69.003,199.229L68.948,199.066C68.83,198.712 68.784,198.152 68.785,197.478C68.789,196.393 68.917,195.011 69.077,193.706C69.345,191.529 69.698,189.567 69.698,189.567C62.463,184.164 68.35,174.181 75.097,168.34C75.298,168.355 75.509,168.368 75.731,168.379C77.632,168.475 78.438,168.728 80.246,168.939C82.055,169.15 83.313,169.271 83.313,169.271C83.313,169.271 84.767,169.792 85.89,169.898C87.014,170.004 86.884,169.486 86.884,169.486C86.884,169.486 87.433,169.051 85.706,168.823C83.979,168.594 82.952,168.951 81.248,168.526C79.544,168.102 78.991,168.261 77.025,168.034C76.478,167.971 76.021,167.924 75.627,167.892C76.553,167.124 77.49,166.439 78.405,165.857C79.778,166.28 80.3,166.611 81.819,166.765C83.555,166.94 83.939,167.094 85.61,167.51C87.282,167.925 87.368,167.868 87.368,167.868C87.368,167.868 87.711,167.31 86.643,166.99C85.574,166.669 84.024,166.706 84.024,166.706C84.024,166.706 82.59,166.612 80.852,166.143C80.058,165.929 79.436,165.768 78.826,165.596C79.401,165.247 79.966,164.942 80.512,164.686L81.688,164.13C81.916,164.189 82.17,164.24 82.461,164.284C84.244,164.551 84.611,164.766 86.269,165.356C87.928,165.946 88.032,165.87 88.032,165.87C88.032,165.87 88.525,165.123 87.478,164.672C86.43,164.22 84.792,164.243 84.792,164.243C84.792,164.243 83.804,164.142 82.508,163.745C85.78,162.216 89.011,160.879 92.912,160.89C95.178,160.897 97.372,162.627 99.205,164.64C98.804,164.703 98.384,164.802 98.032,164.954C96.984,165.405 97.477,166.152 97.477,166.152C97.477,166.152 97.582,166.228 99.24,165.638L99.717,165.467L99.878,165.408C100.323,165.936 100.743,166.471 101.132,166.989C100.807,166.994 100.3,167.015 99.78,167.085C99.467,167.127 99.15,167.187 98.867,167.272C97.798,167.592 98.141,168.15 98.141,168.15C98.141,168.15 98.228,168.207 99.899,167.792L99.913,167.788C100.567,167.626 101.023,167.504 101.441,167.404C101.872,167.99 102.259,168.544 102.596,169.027C102.13,169.039 101.684,169.02 101.205,169.02C100.776,169.02 100.321,169.036 99.804,169.105C98.077,169.333 98.625,169.768 98.625,169.768C98.625,169.768 98.496,170.286 99.619,170.18C100.454,170.101 101.47,169.794 101.938,169.641C102.1,169.588 102.196,169.553 102.196,169.553C102.196,169.553 102.457,169.528 102.912,169.481C103.139,169.805 103.336,170.083 103.5,170.299C103.633,170.474 103.772,170.647 103.917,170.818C105.426,172.604 107.487,174.185 109.084,176.352C110.834,178.727 111.723,183.117 110.098,184.492C108.473,185.867 110.317,189.192 110.567,189.942C110.638,190.156 110.77,190.583 110.908,191.151C111.255,192.575 111.638,194.886 111.192,196.941C110.567,199.816 109.942,200.066 109.942,200.066C109.942,200.066 107.817,199.441 105.943,198.316C104.068,197.191 102.943,195.941 102.943,195.941C102.943,195.941 102.316,196.199 101.314,196.573C100.589,196.921 99.902,197.228 99.28,197.471C98.84,197.643 98.212,197.783 97.435,197.895ZM91.42,185.468C91.42,185.468 90.444,185.066 90.39,186.483C90.337,187.901 91.268,188.697 90.826,190.115C90.384,191.532 90.822,191.964 90.826,193.575C90.831,195.186 90.978,195.849 91.42,196.493C91.862,197.138 92.042,196.135 91.797,194.589C91.551,193.043 91.862,192.368 91.862,190.886C91.862,189.404 91.813,188.375 91.813,188.375C91.813,188.375 92.501,187.151 92.452,186.233C92.403,185.315 91.42,185.468 91.42,185.468ZM86.976,182.751C86.976,182.751 85.376,182.561 85.296,183.701C85.216,184.84 86.336,186.36 86.336,186.36C86.336,186.36 87.056,187.8 87.056,189.639C87.056,191.479 87.136,192.439 86.736,194.359C86.336,196.278 86.256,197.238 86.976,196.438C87.695,195.639 87.935,194.815 87.942,192.815C87.95,190.816 88.662,190.279 87.942,188.52C87.222,186.76 87.348,186.341 87.261,184.581C87.174,182.821 86.976,182.751 86.976,182.751ZM93.648,184.764C93.648,184.764 93.526,184.82 93.473,186.238C93.419,187.655 93.496,187.993 93.054,189.41C92.612,190.828 93.049,191.26 93.054,192.871C93.059,194.481 93.206,195.145 93.648,195.789C94.09,196.433 94.041,195.66 93.795,194.114C93.55,192.567 93.599,191.794 93.599,190.312C93.599,188.83 94.041,187.671 94.041,187.671C94.041,187.671 94.729,186.447 94.68,185.529C94.63,184.611 93.648,184.764 93.648,184.764ZM95.473,182.358C95.473,182.358 95.352,182.428 95.298,184.183C95.245,185.939 95.322,186.357 94.88,188.113C94.438,189.869 94.875,190.404 94.88,192.399C94.884,194.394 95.031,195.215 95.473,196.013C95.916,196.811 95.866,195.854 95.621,193.938C95.375,192.023 95.424,191.066 95.424,189.23C95.424,187.395 95.866,185.958 95.866,185.958C95.866,185.958 96.554,184.442 96.505,183.305C96.456,182.168 95.473,182.358 95.473,182.358ZM70.645,194.625C70.597,195.182 70.546,195.838 70.491,196.608C70.467,196.938 70.468,197.267 70.489,197.594C70.506,197.866 70.537,198.136 70.58,198.404C71.15,201.926 73.79,205.007 73.79,205.007C76.89,204.607 80.189,198.308 80.189,198.308C80.189,198.308 80.093,198.229 79.877,198.077C79.364,197.714 78.173,196.935 75.99,195.808C72.89,194.209 70.991,191.609 70.991,191.609C70.991,191.609 70.857,192.143 70.645,194.625ZM91.185,169.092C91.196,169.672 94.504,170.264 95.286,169.873C96.067,169.482 94.767,166.69 94.341,166.428C93.916,166.166 91.173,168.512 91.185,169.092ZM79.624,178.576C79.698,179.504 81.543,181.263 84.231,181.071C86.918,180.879 88.017,178.48 87.942,177.552C87.868,176.624 86.278,174.992 83.783,175.504C81.287,176.016 79.549,177.648 79.624,178.576ZM88.976,184.486C88.976,184.486 87.994,184.325 87.945,185.288C87.896,186.252 88.583,187.536 88.583,187.536C88.583,187.536 89.026,188.754 89.026,190.309C89.026,191.864 89.075,192.675 88.829,194.298C88.583,195.921 88.534,196.732 88.976,196.056C89.419,195.38 89.565,194.684 89.57,192.994C89.575,191.303 90.012,190.85 89.57,189.362C89.128,187.875 89.205,187.52 89.152,186.032C89.098,184.545 88.976,184.486 88.976,184.486ZM109.73,191.876C109.468,190.953 109.222,190.324 109.222,190.324C109.222,190.324 108.436,191.569 107.421,192.65C106.817,193.293 105.714,194.122 104.92,194.688C104.379,195.073 103.98,195.337 103.98,195.337C103.98,195.337 108.878,199.241 109.648,198.308C110.869,196.827 110.263,193.748 109.73,191.876ZM96.836,179.272C96.634,180.08 97.661,182.083 99.939,182.665C102.216,183.246 103.806,181.515 104.008,180.707C104.21,179.899 103.358,178.075 101.149,177.818C98.939,177.562 97.038,178.464 96.836,179.272Z" style="fill:rgb(195,110,56);"/>
            </g>
            <g transform="matrix(0.242179,0,0,0.242179,164.996884,53.968839)">
                <path d="M118.315,191.19C124.298,192.016 133.391,193.447 140.017,195.285C134.899,193.575 126.952,192.492 126.045,192.278C125.489,192.147 121.765,191.644 118.315,191.19Z" style="fill:rgb(210,132,82);"/>
            </g>
            <g transform="matrix(0.242179,0,0,0.242179,164.996884,53.968839)">
                <path d="M156.608,199.226C168.65,201.033 185.299,202.418 195.688,202.48C195.689,202.467 195.689,202.454 195.689,202.441C190.887,202.421 184.423,202.142 177.252,201.242C173.743,200.802 165.039,200.343 156.608,199.226Z" style="fill:rgb(210,132,82);"/>
            </g>
            <g transform="matrix(0.242179,0,0,0.242179,164.996884,53.968839)">
                <path d="M212.535,146.095C211.14,144.402 209.71,142.731 208.335,141.231C209.368,142.521 210.883,144.227 212.535,146.095Z" style="fill:rgb(210,132,82);"/>
            </g>
            <g transform="matrix(0.242179,0,0,0.242179,164.996884,53.968839)">
                <path d="M230.25,119.971C229.173,118.341 227.619,117.455 225.739,118.837C220.737,122.511 216.267,129.73 216.267,135.832C216.267,139.548 217.725,144.758 219.672,151.167C222.269,150.999 225.085,151.152 228.12,151.624C228.155,151.603 228.19,151.587 228.224,151.577C228.299,151.555 228.371,151.59 228.439,151.675C230.163,151.954 231.957,152.336 233.821,152.821C234.075,152.889 234.327,152.959 234.574,153.03C232.892,146.949 228.673,145.346 228.967,140.359C229.205,136.301 232.058,132.431 232.705,128.892C232.432,128.895 231.657,124.871 232.524,125.656C232.409,125.259 232.289,124.855 232.162,124.449C232.097,124.299 232.043,124.132 232.004,123.953C231.867,123.532 231.722,123.114 231.569,122.706C231.512,123.037 229.901,120.179 230.25,119.971Z" style="fill:rgb(210,132,82);"/>
            </g>
            <g transform="matrix(0.242179,0,0,0.242179,164.996884,53.968839)">
                <path d="M118.315,191.19C116.472,190.947 114.707,190.719 113.545,190.57C114.642,190.703 116.303,190.912 118.315,191.19Z" style="fill:rgb(169,91,40);"/>
            </g>
            <g transform="matrix(0.242179,0,0,0.242179,164.996884,53.968839)">
                <path d="M156.608,199.226C150.882,198.468 145.281,197.406 141.519,195.841C141.057,195.649 140.553,195.464 140.017,195.285C141.418,195.673 142.708,196.08 143.836,196.503C146.339,197.441 150.969,198.38 156.608,199.226Z" style="fill:rgb(169,91,40);"/>
            </g>
            <g transform="matrix(0.242179,0,0,0.242179,164.996884,53.968839)">
                <path d="M113.545,190.57C112.696,190.461 112.17,190.393 112.17,190.393C112.17,190.393 111.481,184.959 114.605,182.321C117.73,179.683 124.291,176.538 125.072,169.674C125.853,162.811 121.479,155.781 129.447,155.781C137.414,155.781 135.539,163.102 137.102,167.331C138.664,171.56 139.601,175.355 143.663,177.363C147.725,179.371 152.724,186.358 160.067,189.738C167.409,193.119 170.534,195.774 178.189,197.805C182.972,199.074 190.073,200.392 195.718,201.202C195.711,201.619 195.702,202.032 195.689,202.441C190.887,202.421 184.423,202.142 177.252,201.242C173.743,200.802 165.039,200.343 156.608,199.226C150.969,198.38 146.339,197.441 143.836,196.503C142.708,196.08 141.418,195.673 140.017,195.285C134.899,193.575 126.952,192.492 126.045,192.278C125.489,192.147 121.765,191.644 118.315,191.19C116.303,190.912 114.642,190.703 113.545,190.57Z" style="fill:rgb(169,91,40);"/>
            </g>
            <g transform="matrix(0.242179,0,0,0.242179,164.996884,53.968839)">
                <path d="M197.427,177.217C196.221,176.128 194.973,174.976 193.695,173.765C187.897,168.273 185.408,163.163 180.879,165.527C176.708,167.703 175.686,172.99 179.354,177.121C184.083,182.448 192.779,186.275 193.39,189.937C193.631,191.388 194.64,192.982 195.978,194.587C196.005,194.182 196.035,193.769 196.068,193.349L196.805,183.77C196.956,181.808 197.164,179.624 197.427,177.217Z" style="fill:rgb(191,107,53);"/>
            </g>
            <g transform="matrix(0.002361,-0.001225,0.001301,0.002509,207.049676,94.552517)">
                <path d="M354.62,846.029C301.597,863.055 241.728,824.268 220.914,759.407C193.883,675.204 212.01,583.98 265.044,566.965C318.067,549.939 387.869,619.689 412.934,697.768C433.748,762.629 407.654,829.003 354.62,846.029Z" style="fill:rgb(235,178,182);fill-rule:nonzero;"/>
            </g>
            <g transform="matrix(0.002361,-0.001225,0.001301,0.002509,207.049676,94.552517)">
                <path d="M835.854,1045.89C758.167,1059.01 722.077,1030.15 672.255,1038.55C622.423,1046.96 597.81,1086.06 520.123,1099.16C418.421,1116.31 321.66,1002.79 399.8,903.756C496.911,780.694 507.513,644.724 603.091,628.604C698.679,612.484 753.298,737.44 885.408,821.838C991.711,889.757 937.546,1028.74 835.854,1045.89Z" style="fill:rgb(235,178,182);fill-rule:nonzero;"/>
            </g>
            <g transform="matrix(0.002361,-0.001225,0.001301,0.002509,207.049676,94.552517)">
                <path d="M599.488,455.277C592.797,373.555 630.637,282.414 686.131,277.864C741.645,273.325 793.268,350.683 800.484,438.818C806.043,506.715 765.557,565.441 710.053,569.981C654.55,574.531 605.047,523.175 599.488,455.277Z" style="fill:rgb(235,178,182);fill-rule:nonzero;"/>
            </g>
            <g transform="matrix(0.002361,-0.001225,0.001301,0.002509,207.049676,94.552517)">
                <path d="M354.363,514.075C332.272,428.452 355.66,338.433 409.589,324.526C463.508,310.609 529.151,384.292 549.636,463.687C566.661,529.65 536.748,594.398 482.829,608.315C428.9,622.232 371.389,580.038 354.363,514.075Z" style="fill:rgb(235,178,182);fill-rule:nonzero;"/>
            </g>
            <g transform="matrix(0.002361,-0.001225,0.001301,0.002509,207.049676,94.552517)">
                <path d="M909.145,752.479C853.466,753.797 807.031,699.651 805.415,631.548C803.48,549.579 846.549,460.785 902.217,459.477C957.896,458.16 1004.95,538.379 1007.04,626.782C1008.64,694.885 964.814,751.161 909.145,752.479Z" style="fill:rgb(235,178,182);fill-rule:nonzero;"/>
            </g>
            <g transform="matrix(0.001763,-0.000353,0.000571,0.002851,219.336861,82.526715)">
                <path d="M354.62,846.029C301.597,863.055 229.29,820.433 208.476,755.572C181.445,671.369 212.01,583.98 265.044,566.965C318.067,549.939 387.869,619.689 412.934,697.768C433.748,762.629 407.654,829.003 354.62,846.029Z" style="fill:rgb(235,178,182);"/>
            </g>
            <g transform="matrix(0.001763,-0.000353,0.000571,0.002851,219.402316,82.46756)">
                <path d="M767.469,1047.668C731.356,1043.424 704.721,1033.076 672.255,1038.55C622.423,1046.96 597.81,1086.06 520.123,1099.16C418.421,1116.31 321.66,1002.79 399.8,903.756C496.911,780.694 507.513,644.724 603.091,628.604C683.874,614.981 735.396,702.117 829.159,780.378C830.599,790.879 831.991,801.309 833.346,811.654C843.863,891.975 817.298,970.165 767.469,1047.668Z" style="fill:rgb(235,178,182);"/>
            </g>
            <g transform="matrix(0.001763,-0.000353,0.000571,0.002851,219.402316,82.46756)">
                <path d="M781.008,523.836C764.647,549.963 739.457,567.576 710.053,569.981C654.55,574.531 605.047,523.175 599.488,455.277C593.085,377.068 627.466,290.232 679.075,278.923C725.361,349.261 757.49,434.28 781.008,523.836Z" style="fill:rgb(235,178,182);"/>
            </g>
            <g transform="matrix(0.001763,-0.000353,0.000571,0.002851,219.402316,82.46756)">
                <path d="M315.094,497.737C293.003,412.114 355.66,338.433 409.589,324.526C463.508,310.609 529.151,384.292 549.636,463.687C566.661,529.65 536.748,594.398 482.829,608.315C428.9,622.232 332.12,563.7 315.094,497.737Z" style="fill:rgb(235,178,182);"/>
            </g>
            <g transform="matrix(0.001763,-0.000353,0.000571,0.002851,219.402316,82.46756)">
                <path d="M813.242,675.912C808.67,662.579 805.939,648.064 805.451,632.833C808.198,647.194 810.788,661.567 813.242,675.912Z" style="fill:rgb(235,178,182);"/>
            </g>
            <g transform="matrix(0.242179,0,0,0.242179,164.996884,53.968839)">
                <path d="M30.416,169.639L30.403,169.429C30.403,169.429 33.936,159.158 38.346,163.279C40.72,165.498 34.852,184.526 44.752,183.701C58.532,182.552 65.031,190.703 69.077,193.706C68.917,195.011 68.789,196.393 68.785,197.478C68.784,198.152 68.83,198.712 68.948,199.066L69.003,199.229C67.978,199.438 66.108,199.547 62.718,199.162C55.844,198.381 47.095,196.818 43.971,194.787C40.846,192.757 33.257,184.021 32.183,181.037C30.961,177.64 30.495,170.912 30.416,169.639Z" style="fill:rgb(167,98,54);"/>
            </g>
            <g transform="matrix(0.113752,0.259607,0.19431,-0.085141,144.371384,86.989917)">
                <path d="M86.78,188.538C87.057,188.62 87.32,188.677 87.561,188.703C88.112,188.763 88.601,188.726 89.033,188.613C88.935,187.257 88.808,186.271 88.631,184.702C88.402,182.67 87.984,181.127 87.984,181.127C87.984,181.127 87.935,180.987 87.863,180.757C87.325,180.588 86.762,180.394 86.195,180.17C86.261,181.57 86.279,182.167 86.624,183.871C87.012,185.789 86.735,186.444 86.78,188.538Z" style="fill:rgb(169,91,40);"/>
            </g>
            <g transform="matrix(0.113752,0.259607,0.19431,-0.085141,144.371384,86.989917)">
                <path d="M91.486,186.275C92.196,184.587 92.131,182.54 91.814,181.915C91.631,181.842 91.448,181.775 91.265,181.716C91.04,181.644 90.755,181.565 90.423,181.477C90.566,182.071 90.778,182.971 91.026,184.054C91.228,184.936 91.356,185.615 91.486,186.275Z" style="fill:rgb(169,91,40);"/>
            </g>
            <g transform="matrix(0.113752,0.259607,0.19431,-0.085141,144.371384,86.989917)">
                <path d="M89.36,188.51C90.179,188.202 90.772,187.601 91.189,186.878C90.823,185.467 90.57,184.842 90.36,183.195C90.268,182.473 90.125,181.892 89.96,181.354C89.467,181.223 88.9,181.071 88.294,180.89C88.395,181.634 88.508,182.259 88.785,183.406C89.243,185.301 89.074,185.942 89.321,188.151C89.334,188.275 89.347,188.394 89.36,188.51Z" style="fill:rgb(169,91,40);"/>
            </g>
            <g transform="matrix(0.113752,0.259607,0.19431,-0.085141,144.371384,86.989917)">
                <path d="M85.482,180.356C83.338,181.528 80.568,183.173 80.519,183.87C80.451,184.839 83.824,187.466 86.34,188.392C86.339,187.371 86.295,186.462 86.252,185.172C86.183,183.074 85.793,181.452 85.793,181.452C85.793,181.452 85.634,180.986 85.482,180.356Z" style="fill:rgb(169,91,40);"/>
            </g>
            <g transform="matrix(0.242179,0,0,0.242179,164.996884,53.968839)">
                <path d="M217.148,151.441C215.676,149.656 214.048,147.808 212.535,146.095C214.045,147.931 215.514,149.793 216.825,151.493C216.932,151.475 217.04,151.458 217.148,151.441Z" style="fill:rgb(197,117,65);"/>
            </g>
            <g transform="matrix(0.242179,0,0,0.242179,164.996884,53.968839)">
                <path d="M170.664,133.934C171.267,133.626 171.855,133.371 172.387,133.157C176.768,131.395 191.787,133.41 191.787,133.41C191.787,133.41 202.473,133.005 207.578,140.235C207.786,140.529 208.041,140.863 208.335,141.231C209.368,142.521 210.883,144.227 212.535,146.095C214.045,147.931 215.514,149.793 216.825,151.493C213.898,151.986 211.288,152.942 208.994,154.361C205.235,156.689 202.432,159.606 200.586,163.113C195.169,160.287 188.487,158.878 177.739,155.781C164.46,151.954 167.116,150.702 165.5,143.985C164.151,138.376 167.611,135.488 170.664,133.934Z" style="fill:rgb(197,117,65);"/>
            </g>
            <g transform="matrix(0.242179,0,0,0.242179,164.996884,53.968839)">
                <path d="M70.489,197.594C70.468,197.267 70.467,196.938 70.491,196.608C70.546,195.838 70.597,195.182 70.645,194.625C70.857,192.143 70.991,191.609 70.991,191.609C70.991,191.609 72.89,194.209 75.99,195.808C78.173,196.935 79.364,197.714 79.877,198.077C80.093,198.229 80.189,198.308 80.189,198.308C80.189,198.308 76.89,204.607 73.79,205.007C73.79,205.007 71.15,201.926 70.58,198.404C70.537,198.136 70.506,197.866 70.489,197.594Z" style="fill:rgb(235,178,182);"/>
            </g>
            <g transform="matrix(0.242179,0,0,0.242179,164.996884,53.968839)">
                <path d="M109.73,191.876C110.263,193.748 110.869,196.827 109.648,198.308C108.878,199.241 103.98,195.337 103.98,195.337C103.98,195.337 104.379,195.073 104.92,194.688C105.714,194.122 106.817,193.293 107.421,192.65C108.436,191.569 109.222,190.324 109.222,190.324C109.222,190.324 109.468,190.953 109.73,191.876Z" style="fill:rgb(235,178,182);"/>
            </g>
            <g transform="matrix(0.242179,0,0,0.242179,164.996884,53.968839)">
                <path d="M91.185,169.092C91.196,169.672 94.504,170.264 95.286,169.873C96.067,169.482 94.767,166.69 94.341,166.428C93.916,166.166 91.173,168.512 91.185,169.092Z" style="fill:rgb(204,94,73);"/>
            </g>
            <g transform="matrix(0.242179,0,0,0.242179,164.996884,53.968839)">
                <path d="M86.976,182.751C86.976,182.751 85.376,182.561 85.296,183.701C85.216,184.84 86.336,186.36 86.336,186.36C86.336,186.36 87.056,187.8 87.056,189.639C87.056,191.479 87.136,192.439 86.736,194.359C86.336,196.278 86.256,197.238 86.976,196.438C87.695,195.639 87.935,194.815 87.942,192.815C87.95,190.816 88.662,190.279 87.942,188.52C87.222,186.76 87.348,186.341 87.261,184.581C87.174,182.821 86.976,182.751 86.976,182.751Z" style="fill:rgb(169,91,40);"/>
            </g>
            <g transform="matrix(0.242179,0,0,0.242179,166.371598,39.416478)">
                <path d="M86.976,182.751C86.976,182.751 85.376,182.561 85.296,183.701C85.216,184.84 86.336,186.36 86.336,186.36C86.336,186.36 88.591,185.112 88.591,186.952C88.591,188.792 93.982,185.656 93.583,187.576C93.183,189.496 97.454,187.576 98.174,186.776C98.894,185.976 94.909,187.136 94.917,185.137C94.925,183.137 91.35,186.824 90.63,185.064C89.91,183.304 87.348,186.341 87.261,184.581C87.174,182.821 86.976,182.751 86.976,182.751Z" style="fill:rgb(169,91,40);"/>
            </g>
            <g transform="matrix(0.242179,0,0,0.242179,169.512426,41.756991)">
                <path d="M90.73,185.372C90.01,183.613 82.176,180.915 82.096,182.055C82.016,183.195 87.674,187.77 88.883,187.716C95.182,187.436 103.9,180.806 101.773,179.886C100.716,179.429 91.45,187.132 90.73,185.372Z" style="fill:rgb(169,91,40);"/>
            </g>
            <g transform="matrix(-0.099585,0.220756,-0.220756,-0.099585,252.703436,93.532727)">
                <path d="M90.73,185.372C90.01,183.613 82.176,180.915 82.096,182.055C82.016,183.195 87.674,187.77 88.883,187.716C95.182,187.436 103.9,180.806 101.773,179.886C100.716,179.429 91.45,187.132 90.73,185.372Z" style="fill:rgb(169,91,40);"/>
            </g>
            <g transform="matrix(0.083949,0.227163,-0.227163,0.083949,254.732148,56.745088)">
                <path d="M82.262,181.887C82.159,181.922 82.102,181.977 82.096,182.055C82.094,182.09 82.097,182.128 82.104,182.169C82.156,182.075 82.209,181.981 82.262,181.887Z" style="fill:rgb(169,91,40);"/>
            </g>
            <g transform="matrix(-0.032711,0.239959,-0.239959,-0.032711,252.219159,80.750053)">
                <path d="M90.73,185.372C90.01,183.613 82.176,180.915 82.096,182.055C82.016,183.195 87.674,187.77 88.883,187.716C95.182,187.436 103.9,180.806 101.773,179.886C100.716,179.429 91.45,187.132 90.73,185.372Z" style="fill:rgb(169,91,40);"/>
            </g>
            <g transform="matrix(-0.032711,0.239959,-0.239959,-0.032711,253.859553,81.317568)">
                <path d="M90.73,185.372C90.01,183.613 82.176,180.915 82.096,182.055C82.016,183.195 87.674,187.77 88.883,187.716C95.182,187.436 103.9,180.806 101.773,179.886C100.716,179.429 91.45,187.132 90.73,185.372Z" style="fill:rgb(169,91,40);"/>
            </g>
            <g transform="matrix(-0.153267,0.062641,-0.184907,-0.159922,225.756636,116.524358)">
                <path d="M90.616,183.047C89.896,181.287 82.176,180.915 82.096,182.055C82.016,183.195 87.674,187.77 88.883,187.716C95.182,187.436 103.9,180.806 101.773,179.886C100.716,179.429 91.336,184.807 90.616,183.047Z" style="fill:rgb(169,91,40);"/>
            </g>
            <g transform="matrix(-0.153267,0.062641,-0.184907,-0.159922,223.681053,114.761582)">
                <path d="M90.616,183.047C89.896,181.287 82.176,180.915 82.096,182.055C82.016,183.195 87.674,187.77 88.883,187.716C95.182,187.436 114.663,180.476 112.535,179.556C111.478,179.099 91.336,184.807 90.616,183.047Z" style="fill:rgb(169,91,40);"/>
            </g>
            <g transform="matrix(-0.094369,0.105524,-0.220852,-0.135512,227.819389,110.196248)">
                <path d="M90.73,185.372C90.01,183.613 82.176,180.915 82.096,182.055C82.016,183.195 87.674,187.77 88.883,187.716C95.182,187.436 103.9,180.806 101.773,179.886C100.716,179.429 91.45,187.132 90.73,185.372Z" style="fill:rgb(169,91,40);"/>
            </g>
            <g transform="matrix(-0.094369,0.105524,-0.220852,-0.135512,229.238746,111.297093)">
                <path d="M90.73,185.372C90.01,183.613 82.176,180.915 82.096,182.055C82.016,183.195 87.674,187.77 88.883,187.716C95.182,187.436 103.9,180.806 101.773,179.886C100.716,179.429 91.45,187.132 90.73,185.372Z" style="fill:rgb(169,91,40);"/>
            </g>
            <g transform="matrix(0.242179,0,0,0.242179,166.29375,35.325143)">
                <path d="M91.12,184.413C90.4,182.653 84.576,182.035 84.496,183.175C84.416,184.315 87.195,190.489 88.404,190.435C94.703,190.156 100.709,184.086 98.582,183.166C97.525,182.708 91.84,186.172 91.12,184.413Z" style="fill:rgb(169,91,40);"/>
            </g>
            <g transform="matrix(0.242179,0,0,0.242179,154.766109,39.640618)">
                <path d="M89.62,186.212C89.045,184.4 90.031,179.81 89.295,179.564C88.559,179.318 85.561,182.567 85.205,184.736C84.786,187.286 86.048,194.618 86.784,194.864C87.52,195.11 91.64,192.571 89.62,186.212Z" style="fill:rgb(169,91,40);"/>
            </g>
            <g transform="matrix(0.14785,0.065741,-0.086193,0.193846,189.816426,43.945929)">
                <path d="M86.976,182.751C86.976,182.751 85.376,182.561 85.296,183.701C85.216,184.84 86.336,186.36 86.336,186.36C86.336,186.36 93.982,185.656 93.583,187.576C93.183,189.496 97.818,186.853 98.538,186.053C98.926,185.622 94.726,183.929 91.607,183.854C88.934,183.789 87.301,185.393 87.261,184.581C87.174,182.821 86.976,182.751 86.976,182.751Z" style="fill:rgb(169,91,40);"/>
            </g>
            <g transform="matrix(0.200063,0.088958,-0.086193,0.193846,184.145373,42.229211)">
                <path d="M86.976,182.751C86.976,182.751 85.376,182.561 85.296,183.701C85.216,184.84 86.336,186.36 86.336,186.36C86.336,186.36 93.982,185.656 93.583,187.576C93.183,189.496 97.454,187.576 98.174,186.776C98.894,185.976 88.867,186.166 88.781,184.406C88.694,182.646 86.976,182.751 86.976,182.751Z" style="fill:rgb(169,91,40);"/>
            </g>
            <g transform="matrix(0.258987,0.115158,-0.086193,0.193846,177.875226,40.267156)">
                <path d="M86.976,182.751C86.976,182.751 85.376,182.561 85.296,183.701C85.216,184.84 86.336,186.36 86.336,186.36C86.336,186.36 91.7,186.048 91.3,187.967C90.9,189.887 97.454,187.576 98.174,186.776C98.894,185.976 87.348,186.341 87.261,184.581C87.174,182.821 86.976,182.751 86.976,182.751Z" style="fill:rgb(169,91,40);"/>
            </g>
            <g transform="matrix(0.280327,0.041865,-0.031335,0.209818,166.243403,45.427998)">
                <path d="M85.527,182.925C85.527,182.925 82.188,179.158 82.108,180.297C82.028,181.437 84.49,186.089 86.94,186.355C91.572,186.858 98.272,188.013 109.902,183.318C110.928,182.904 113.083,180.783 112.003,180.843C108.229,181.053 95.119,186.175 91.931,185.265C90.64,184.896 85.527,182.925 85.527,182.925Z" style="fill:rgb(169,91,40);"/>
            </g>
            <g transform="matrix(0.268486,0.090834,-0.067987,0.200956,170.495792,42.437052)">
                <path d="M85.527,182.925C85.527,182.925 82.188,179.158 82.108,180.297C82.028,181.437 84.49,186.089 86.94,186.355C91.572,186.858 92.56,186.283 91.931,185.265C91.09,183.905 85.527,182.925 85.527,182.925Z" style="fill:rgb(169,91,40);"/>
            </g>
            <g transform="matrix(-0.268486,0.090834,0.067987,0.200956,212.164134,43.996377)">
                <path d="M85.527,182.925C85.527,182.925 82.188,179.158 82.108,180.297C82.028,181.437 84.49,186.089 86.94,186.355C91.572,186.858 92.56,186.283 91.931,185.265C91.09,183.905 85.527,182.925 85.527,182.925Z" style="fill:rgb(169,91,40);"/>
            </g>
            <g transform="matrix(0.248787,0.135796,-0.182586,0.334509,249.546691,29.07361)">
                <path d="M86.399,182.92C85.117,182.272 82.188,179.158 82.108,180.297C82.028,181.437 82.575,185.998 85.024,186.264C89.656,186.767 92.56,186.283 91.931,185.265C91.09,183.905 88.036,183.748 86.399,182.92Z" style="fill:rgb(169,91,40);"/>
            </g>
            <g transform="matrix(0.295491,0.161289,-0.224881,0.411996,250.011265,13.046125)">
                <path d="M82.417,180.062C82.269,180.059 82.169,180.104 82.128,180.206C82.225,180.158 82.321,180.11 82.417,180.062Z" style="fill:rgb(169,91,40);"/>
            </g>
            <g transform="matrix(0.295491,0.161289,-0.224881,0.411996,250.011265,13.046125)">
                <path d="M82.128,180.206C82.117,180.233 82.111,180.263 82.108,180.297C82.028,181.437 84.49,186.089 86.94,186.355C91.572,186.858 92.56,186.283 91.931,185.265C91.09,183.905 89.781,183.962 88.144,183.135C87.051,182.581 83.492,180.08 82.417,180.062C82.321,180.11 82.225,180.158 82.128,180.206Z" style="fill:rgb(169,91,40);"/>
            </g>
            <g transform="matrix(0.268486,0.090834,-0.067987,0.200956,168.921885,42.678559)">
                <path d="M85.527,182.925C85.527,182.925 82.188,179.158 82.108,180.297C82.028,181.437 84.49,186.089 86.94,186.355C91.572,186.858 92.56,186.283 91.931,185.265C91.09,183.905 85.527,182.925 85.527,182.925Z" style="fill:rgb(169,91,40);"/>
            </g>
            <g transform="matrix(0.113752,0.259607,0.19431,-0.085141,139.716078,84.229526)">
                <path d="M85.527,182.925C85.527,182.925 82.188,179.158 82.108,180.297C82.028,181.437 84.49,186.089 86.94,186.355C91.572,186.858 92.56,186.283 91.931,185.265C91.09,183.905 85.527,182.925 85.527,182.925Z" style="fill:rgb(169,91,40);"/>
            </g>
            <g transform="matrix(0.113752,0.259607,0.19431,-0.085141,141.202021,84.229526)">
                <path d="M88.605,185.031C88.605,185.031 85.422,182.648 85.342,183.788C85.262,184.927 85.111,188.437 87.561,188.703C92.193,189.207 92.414,182.879 91.784,181.861C90.944,180.501 88.605,185.031 88.605,185.031Z" style="fill:rgb(169,91,40);"/>
            </g>
            <g transform="matrix(0.126107,0.253836,-0.197856,0.098296,217.100264,51.146215)">
                <path d="M85.731,180.764C83.731,177.856 80.014,166.681 79.934,167.821C79.854,168.961 84.49,186.089 86.94,186.355C91.572,186.858 92.56,186.283 91.931,185.265C91.09,183.905 87.018,182.636 85.731,180.764Z" style="fill:rgb(169,91,40);"/>
            </g>
            <g transform="matrix(0.126107,0.253836,-0.197856,0.098296,218.511232,51.146215)">
                <path d="M85.731,180.764C83.731,177.856 80.014,166.681 79.934,167.821C79.854,168.961 84.49,186.089 86.94,186.355C91.572,186.858 92.56,186.283 91.931,185.265C91.09,183.905 87.018,182.636 85.731,180.764Z" style="fill:rgb(169,91,40);"/>
            </g>
            <g transform="matrix(0.081064,0.271596,-0.211699,0.063187,231.421049,58.269564)">
                <path d="M85.731,180.764C83.731,177.856 80.014,166.681 79.934,167.821C79.854,168.961 81.951,183.329 84.4,183.595C89.032,184.099 92.56,186.283 91.931,185.265C91.09,183.905 87.018,182.636 85.731,180.764Z" style="fill:rgb(169,91,40);"/>
            </g>
            <g transform="matrix(0.148743,0,0,0.204725,173.608025,61.233548)">
                <path d="M86.976,182.751C86.976,182.751 85.376,182.561 85.296,183.701C85.216,184.84 86.336,186.36 86.336,186.36C86.336,186.36 87.056,187.8 87.056,189.639C87.056,191.479 87.136,192.439 86.736,194.359C86.336,196.278 86.256,197.238 86.976,196.438C87.695,195.639 87.935,194.815 87.942,192.815C87.95,190.816 88.662,190.279 87.942,188.52C87.222,186.76 87.348,186.341 87.261,184.581C87.174,182.821 86.976,182.751 86.976,182.751Z" style="fill:rgb(169,91,40);"/>
            </g>
            <g transform="matrix(-0.148743,0,0,0.241611,201.055548,53.977324)">
                <path d="M86.976,182.751C86.976,182.751 85.376,182.561 85.296,183.701C85.216,184.84 86.336,186.36 86.336,186.36C86.336,186.36 87.056,187.8 87.056,189.639C87.056,191.479 87.136,192.439 86.736,194.359C86.336,196.278 86.256,197.238 86.976,196.438C87.695,195.639 87.935,194.815 87.942,192.815C87.95,190.816 88.662,190.279 87.942,188.52C87.222,186.76 87.348,186.341 87.261,184.581C87.174,182.821 86.976,182.751 86.976,182.751Z" style="fill:rgb(169,91,40);"/>
            </g>
            <g transform="matrix(-0.148743,0,0,0.195078,200.613456,63.063888)">
                <path d="M86.976,182.751C86.976,182.751 85.376,182.561 85.296,183.701C85.216,184.84 86.336,186.36 86.336,186.36C86.336,186.36 87.056,187.8 87.056,189.639C87.056,191.479 87.136,192.439 86.736,194.359C86.336,196.278 86.256,197.238 86.976,196.438C87.695,195.639 87.935,194.815 87.942,192.815C87.95,190.816 88.662,190.279 87.942,188.52C87.222,186.76 87.348,186.341 87.261,184.581C87.174,182.821 86.976,182.751 86.976,182.751Z" style="fill:rgb(169,91,40);"/>
            </g>
            <g transform="matrix(-0.148743,0,0,0.195078,200.073913,63.234478)">
                <path d="M86.976,182.751C86.976,182.751 85.376,182.561 85.296,183.701C85.216,184.84 86.336,186.36 86.336,186.36C86.336,186.36 86.255,187.637 86.255,189.477C86.255,191.316 86.762,192.154 86.362,194.074C85.962,195.994 86.256,197.238 86.976,196.438C87.695,195.639 87.935,194.815 87.942,192.815C87.95,190.816 88.662,190.279 87.942,188.52C87.222,186.76 88.739,185.771 88.652,184.011C88.566,182.252 86.976,182.751 86.976,182.751Z" style="fill:rgb(169,91,40);"/>
            </g>
            <g transform="matrix(-0.047725,0.123491,-0.225896,-0.087301,231.750069,99.352894)">
                <path d="M86.991,188.67C87.031,188.975 87.056,189.301 87.056,189.639C87.056,191.479 87.136,192.439 86.736,194.359C86.336,196.278 86.256,197.238 86.976,196.438C87.695,195.639 87.935,194.815 87.942,192.815C87.949,191.143 88.448,190.494 88.19,189.296C87.788,189.087 87.389,188.879 86.991,188.67Z" style="fill:rgb(243,217,199);"/>
            </g>
            <g transform="matrix(-0.047725,0.123491,-0.225896,-0.087301,231.750069,99.352894)">
                <path d="M88.19,189.296C88.139,189.062 88.06,188.807 87.942,188.52C87.222,186.76 87.348,186.341 87.261,184.581C87.174,182.821 86.976,182.751 86.976,182.751C86.976,182.751 85.376,182.561 85.296,183.701C85.216,184.84 86.336,186.36 86.336,186.36C86.336,186.36 86.815,187.318 86.991,188.67C87.389,188.879 87.788,189.087 88.19,189.296Z" style="fill:rgb(243,217,199);"/>
            </g>
            <g transform="matrix(-0.024744,0.091755,-0.228825,-0.061707,230.125719,97.91954)">
                <path d="M87.052,191.784C87.029,192.556 86.953,193.315 86.736,194.359C86.336,196.278 86.256,197.238 86.976,196.438C87.695,195.639 87.935,194.815 87.942,192.815C87.943,192.566 87.955,192.339 87.974,192.13C87.66,192.015 87.353,191.899 87.052,191.784Z" style="fill:rgb(243,217,199);"/>
            </g>
            <g transform="matrix(-0.024744,0.091755,-0.228825,-0.061707,230.125719,97.91954)">
                <path d="M87.974,192.13C88.105,190.663 88.572,190.06 87.942,188.52C87.222,186.76 87.348,186.341 87.261,184.581C87.174,182.821 86.976,182.751 86.976,182.751C86.976,182.751 85.376,182.561 85.296,183.701C85.216,184.84 86.336,186.36 86.336,186.36C86.336,186.36 87.056,187.8 87.056,189.639C87.056,190.479 87.072,191.136 87.052,191.784C87.353,191.899 87.66,192.015 87.974,192.13Z" style="fill:rgb(243,217,199);"/>
            </g>
            <g transform="matrix(0.00874,-0.074992,-0.238089,-0.027747,228.789379,106.60818)">
                <path d="M86.25,194.714C86.036,196.256 86.339,197.145 86.976,196.438C87.495,195.861 87.764,195.271 87.877,194.235C87.344,194.395 86.801,194.555 86.25,194.714Z" style="fill:rgb(243,217,199);"/>
            </g>
            <g transform="matrix(0.00874,-0.074992,-0.238089,-0.027747,228.789379,106.60818)">
                <path d="M87.877,194.235C87.92,193.836 87.94,193.371 87.942,192.815C87.95,190.816 88.662,190.279 87.942,188.52C87.222,186.76 88.739,185.771 88.652,184.011C88.566,182.252 86.976,182.751 86.976,182.751C86.976,182.751 85.376,182.561 85.296,183.701C85.216,184.84 86.336,186.36 86.336,186.36C86.336,186.36 86.255,187.637 86.255,189.477C86.255,191.316 86.762,192.154 86.362,194.074C86.316,194.297 86.279,194.511 86.25,194.714C86.801,194.555 87.344,194.395 87.877,194.235Z" style="fill:rgb(243,217,199);"/>
            </g>
            <g transform="matrix(0.047725,0.123491,0.225896,-0.087301,143.17012,99.4212)">
                <path d="M87.288,185.259C87.286,185.203 87.284,185.146 87.282,185.088C87.137,185.115 86.989,185.144 86.838,185.173C86.988,185.202 87.138,185.23 87.288,185.259Z" style="fill:rgb(243,217,199);"/>
            </g>
            <g transform="matrix(0.047725,0.123491,0.225896,-0.087301,143.17012,99.4212)">
                <path d="M87.016,192.461C86.973,193.021 86.89,193.619 86.736,194.359C86.336,196.278 86.256,197.238 86.976,196.438C87.695,195.639 87.935,194.815 87.942,192.815C87.943,192.746 87.944,192.678 87.946,192.612C87.643,192.568 87.333,192.517 87.016,192.461Z" style="fill:rgb(243,217,199);"/>
            </g>
            <g transform="matrix(0.047725,0.123491,0.225896,-0.087301,143.17012,99.4212)">
                <path d="M85.534,184.908C85.6,185.074 85.673,185.234 85.748,185.384C86.122,185.311 86.486,185.24 86.838,185.173C86.403,185.088 85.968,185 85.534,184.908Z" style="fill:rgb(243,217,199);"/>
            </g>
            <g transform="matrix(0.047725,0.123491,0.225896,-0.087301,143.17012,99.4212)">
                <path d="M86.838,185.173C86.486,185.24 86.122,185.311 85.748,185.384C86.029,185.944 86.336,186.36 86.336,186.36C86.336,186.36 87.056,187.8 87.056,189.639C87.056,190.77 87.086,191.568 87.016,192.461C87.333,192.517 87.643,192.568 87.946,192.612C87.998,190.777 88.637,190.218 87.942,188.52C87.325,187.01 87.329,186.487 87.288,185.259C87.138,185.23 86.988,185.202 86.838,185.173Z" style="fill:rgb(243,217,199);"/>
            </g>
            <g transform="matrix(0.047725,0.123491,0.225896,-0.087301,143.17012,99.4212)">
                <path d="M87.282,185.088C87.276,184.931 87.27,184.763 87.261,184.581C87.174,182.821 86.976,182.751 86.976,182.751C86.976,182.751 85.376,182.561 85.296,183.701C85.269,184.084 85.378,184.511 85.534,184.908C85.968,185 86.403,185.088 86.838,185.173C86.989,185.144 87.137,185.115 87.282,185.088Z" style="fill:rgb(243,217,199);"/>
            </g>
            <g transform="matrix(0.024744,0.091755,0.228825,-0.061707,144.79447,97.987846)">
                <path d="M87.33,186.205C87.297,185.766 87.295,185.284 87.262,184.596C87.049,184.548 86.93,184.522 86.93,184.522C86.93,184.522 86.378,184.569 85.442,184.652C85.615,185.183 85.9,185.689 86.102,186.011C86.516,186.078 86.926,186.142 87.33,186.205Z" style="fill:rgb(243,217,199);"/>
            </g>
            <g transform="matrix(0.024744,0.091755,0.228825,-0.061707,144.79447,97.987846)">
                <path d="M86.941,193.173C86.893,193.533 86.827,193.921 86.736,194.359C86.336,196.278 86.256,197.238 86.976,196.438C87.655,195.683 87.906,194.907 87.939,193.14C87.616,193.156 87.283,193.167 86.941,193.173Z" style="fill:rgb(243,217,199);"/>
            </g>
            <g transform="matrix(0.024744,0.091755,0.228825,-0.061707,144.79447,97.987846)">
                <path d="M86.102,186.011C86.238,186.227 86.336,186.36 86.336,186.36C86.336,186.36 87.056,187.8 87.056,189.639C87.056,191.06 87.103,191.955 86.941,193.173C87.283,193.167 87.616,193.156 87.939,193.14C87.941,193.035 87.942,192.927 87.942,192.815C87.95,190.816 88.662,190.279 87.942,188.52C87.507,187.456 87.381,186.882 87.33,186.205C86.926,186.142 86.516,186.078 86.102,186.011Z" style="fill:rgb(243,217,199);"/>
            </g>
            <g transform="matrix(0.024744,0.091755,0.228825,-0.061707,144.79447,97.987846)">
                <path d="M87.262,184.596C87.261,184.591 87.261,184.586 87.261,184.581C87.174,182.821 86.976,182.751 86.976,182.751C86.976,182.751 85.376,182.561 85.296,183.701C85.275,184.003 85.338,184.332 85.442,184.652C86.378,184.569 86.93,184.522 86.93,184.522C86.93,184.522 87.049,184.548 87.262,184.596Z" style="fill:rgb(243,217,199);"/>
            </g>
            <g transform="matrix(-0.00874,-0.074992,0.238089,-0.027747,146.13081,106.676486)">
                <path d="M86.431,191.516C86.527,192.273 86.585,193.006 86.362,194.074C85.962,195.994 86.256,197.238 86.976,196.438C87.695,195.639 87.935,194.815 87.942,192.815C87.944,192.481 87.964,192.188 87.995,191.923C87.436,191.798 86.915,191.661 86.431,191.516Z" style="fill:rgb(243,217,199);"/>
            </g>
            <g transform="matrix(-0.00874,-0.074992,0.238089,-0.027747,146.13081,106.676486)">
                <path d="M87.995,191.923C88.148,190.602 88.542,189.985 87.942,188.52C87.679,187.876 87.715,187.336 87.862,186.823C87.314,186.916 86.792,187.004 86.301,187.087C86.279,187.64 86.255,188.475 86.255,189.477C86.255,190.293 86.355,190.912 86.431,191.516C86.915,191.661 87.436,191.798 87.995,191.923Z" style="fill:rgb(243,217,199);"/>
            </g>
            <g transform="matrix(-0.00874,-0.074992,0.238089,-0.027747,146.13081,106.676486)">
                <path d="M88.401,185.428C88.56,184.997 88.678,184.539 88.652,184.011C88.566,182.252 86.976,182.751 86.976,182.751C86.976,182.751 85.376,182.561 85.296,183.701C85.236,184.547 85.839,185.604 86.153,186.091C86.894,185.86 87.66,185.636 88.401,185.428Z" style="fill:rgb(243,217,199);"/>
            </g>
            <g transform="matrix(-0.00874,-0.074992,0.238089,-0.027747,146.13081,106.676486)">
                <path d="M86.153,186.091C86.262,186.26 86.336,186.36 86.336,186.36C86.336,186.36 86.319,186.625 86.301,187.087C86.792,187.004 87.314,186.916 87.862,186.823C87.997,186.354 88.224,185.908 88.401,185.428C87.66,185.636 86.894,185.86 86.153,186.091Z" style="fill:rgb(243,217,199);"/>
            </g>
            <g transform="matrix(0.242179,0,0,0.242179,164.996884,53.968839)">
                <path d="M79.624,178.576C79.698,179.504 81.543,181.263 84.231,181.071C86.918,180.879 88.017,178.48 87.942,177.552C87.868,176.624 86.278,174.992 83.783,175.504C81.287,176.016 79.549,177.648 79.624,178.576ZM82.408,177.942C82.408,177.942 81.908,179.112 82.761,179.918C83.613,180.725 84.289,180.523 84.73,180.201C85.171,179.878 85.642,178.499 84.965,177.131C84.289,175.764 84.184,175.934 83.423,176.17C82.63,176.416 82.408,177.942 82.408,177.942Z" style="fill:rgb(190,239,141);"/>
            </g>
            <g transform="matrix(0.200327,0.067055,-0.068762,0.205425,184.77697,55.361634)">
                <path d="M79.624,178.576C79.698,179.504 81.543,181.263 84.231,181.071C86.918,180.879 88.017,178.48 87.942,177.552C87.868,176.624 86.278,174.992 83.783,175.504C81.287,176.016 79.549,177.648 79.624,178.576ZM82.595,178.073C82.595,178.073 82.173,179.202 83.044,179.917C83.914,180.632 84.559,180.407 84.969,180.079C85.38,179.752 85.761,178.427 85.032,177.174C84.302,175.921 84.209,176.087 83.484,176.35C82.728,176.624 82.595,178.073 82.595,178.073Z" style="fill:rgb(190,239,141);"/>
            </g>
            <g transform="matrix(0.271634,0,0,0.372721,158.027951,29.675224)">
                <path d="M99.127,180.798C99.127,180.798 98.682,181.558 99.442,182.083C100.202,182.607 100.805,182.476 101.198,182.266C101.591,182.056 102.011,181.16 101.408,180.272C100.805,179.383 100.711,179.494 100.033,179.647C99.325,179.807 99.127,180.798 99.127,180.798Z"/>
            </g>
            <g transform="matrix(0.222006,0.060764,-0.083069,0.303501,182.090144,36.58494)">
                <path d="M99.127,180.798C99.127,180.798 98.682,181.558 99.442,182.083C100.202,182.607 100.805,182.476 101.198,182.266C101.591,182.056 102.011,181.16 101.408,180.272C100.805,179.383 100.711,179.494 100.033,179.647C99.325,179.807 99.127,180.798 99.127,180.798Z"/>
            </g>
        </g>
        <g transform="matrix(1.238356,0,0,1.238356,321.339044,190.120133)">
            <g transform="matrix(0.090918,0,0,0.090918,82.158357,-15.798003)">
                <path d="M514.023,956.956C525.731,967.363 533.496,968.934 538.914,980.586C544.332,992.237 546.979,990.345 546.979,990.345L616.14,978.81L676.199,943.653L672.296,908.39C672.296,908.39 502.315,946.549 514.023,956.956Z" style="fill:rgb(86,42,41);"/>
            </g>
            <g transform="matrix(0.090918,0,0,0.090918,82.158357,-15.798003)">
                <path d="M592.999,978.81C592.999,978.81 598.272,982.694 604.655,978.81C611.038,974.925 612.356,967.709 612.356,967.709C612.356,967.709 611.906,965.973 612.356,965.212C612.806,964.45 616.438,966.219 616.438,966.219C616.438,966.219 618.393,967.895 621.233,966.825C624.074,965.754 626.205,960.211 628.578,959.084C630.951,957.957 630.487,960.248 633.095,959.689C635.702,959.131 635.331,956.94 637.099,955.732C638.867,954.523 642.64,954.027 642.64,954.027C642.64,954.027 644.371,949.294 645.198,948.911C646.025,948.528 644.203,953.032 650.74,949.48C657.276,945.927 657.095,942.155 658.981,941.238C660.866,940.322 662.786,942.199 664.096,941.523C665.406,940.846 666.938,935.981 666.938,935.981C666.938,935.981 660.828,928.166 663.101,923.619C665.375,919.072 662.959,925.324 673.19,923.051C683.42,920.777 693.367,941.096 693.367,941.096L682.142,960.563L610.528,996.085L576.284,1000.632L549.003,1011.573L542.04,1013.966L538.914,1008L556.676,981.308L592.999,978.81Z" style="fill:rgb(169,88,86);"/>
            </g>
            <g transform="matrix(0.090918,0,0,0.090918,82.158357,-15.798003)">
                <path d="M493.256,943.653L504.097,954.493L513.583,961.946C513.583,961.946 520.358,968.044 536.619,966.689C552.88,965.334 573.884,956.526 573.884,956.526L567.108,968.044L561.01,976.852C561.01,976.852 543.394,976.852 537.974,984.983C532.554,993.113 531.199,1008 531.199,1008C531.199,1008 530.739,1013.653 531.99,1013.881C533.24,1014.108 537.332,1014.108 540.174,1010.925C543.016,1007.742 557.907,982.507 561.431,982.166C564.955,981.825 566.66,984.098 566.66,984.098C566.66,984.098 571.32,992.965 583.597,992.397C595.874,991.828 612.356,943.773 612.356,943.773L493.256,943.653Z" style="fill:rgb(201,128,125);"/>
            </g>
            <g transform="matrix(0.090918,0,0,0.090918,82.158357,-15.798003)">
                <path d="M674.255,1003.43C655.166,982.476 824.915,999.345 877.681,1066.755C942.66,1149.766 943.626,1342.499 919.187,1389.108C898.595,1428.38 796.796,1358.967 742.454,1361.08C662.99,1364.17 605.419,1430.429 569.311,1406.98C543.455,1390.189 576.371,1298.47 590.134,1256.124C603.896,1213.778 671.651,1072.976 674.827,1057.096C678.002,1041.216 699.76,1031.427 674.255,1003.43Z" style="fill:rgb(235,235,235);"/>
            </g>
            <g transform="matrix(0.090918,0,0,0.090918,82.158357,-15.798003)">
                <path d="M678.002,1008C671.651,997.811 631.422,1018.984 631.422,1018.984C631.422,1018.984 598.603,1047.568 581.665,1041.216C564.726,1034.864 550.964,1040.158 540.377,1018.984C529.79,997.811 609.19,992.518 609.19,992.518L678.002,956.524C678.002,956.524 693.533,947.725 689.648,942.761C689.648,942.761 689.093,929.749 667.169,928.916C645.244,928.083 611.387,948.065 611.387,948.065C611.387,948.065 575.493,960.553 553.061,958.333C530.628,956.113 511.549,952.089 511.549,952.089C511.549,952.089 506.553,949.036 501.835,952.367C497.118,955.697 477.414,927.945 477.414,927.945C477.414,927.945 466.035,900.47 472.141,890.479C478.246,880.489 553.061,852.459 553.061,852.459L578.431,836.571L575.934,829.355C575.934,829.355 572.048,825.47 575.656,820.197C579.264,814.924 584.259,815.341 592.862,808.264C601.465,801.187 616.174,781.136 641.984,773.088C667.793,765.04 668.23,765.526 678.002,762.265C687.774,759.004 704.148,760.877 704.148,760.877C704.148,760.877 709.144,756.784 717.469,755.396C725.795,754.008 729.68,759.559 734.398,759.559C739.116,759.559 758.82,761.779 758.82,761.779C758.82,761.779 819.597,835.045 838.191,880.835C856.785,926.626 856.854,936.27 856.854,936.27C856.854,936.27 866.845,976.769 864.347,1008C861.85,1039.231 901.318,1116.922 901.318,1116.922C901.318,1116.922 684.354,1018.189 678.002,1008Z" style="fill:rgb(235,235,235);"/>
            </g>
            <g transform="matrix(0.090918,0,0,0.090918,82.158357,-15.798003)">
                <path d="M601.335,1226.895C601.335,1226.895 596.273,1262.723 597.66,1266.192C599.048,1269.661 596.619,1258.213 602.17,1259.947C607.72,1261.682 604.598,1264.11 605.292,1277.292C605.986,1290.475 606.333,1304.818 602.17,1312.563C598.007,1320.308 597.313,1305.391 597.313,1305.391C597.313,1305.391 596.966,1356.732 593.497,1366.099C590.028,1375.465 587.947,1371.302 587.947,1371.302C587.947,1371.302 583.784,1367.833 584.131,1358.814C584.478,1349.794 585.865,1344.244 584.825,1339.387C583.784,1334.531 582.32,1328.29 582.05,1321.696C581.525,1308.888 583.99,1251.358 601.335,1226.895Z"/>
            </g>
            <g transform="matrix(0.090918,0,0,0.090918,82.158357,-15.798003)">
                <path d="M885.124,1354.463C879.687,1342.395 870.849,1365.954 870.849,1372.224C870.849,1378.494 863.227,1391.198 870.849,1389.504C878.472,1387.81 896.354,1379.394 885.124,1354.463Z"/>
            </g>
            <g transform="matrix(0.090918,0,0,0.090918,77.230335,-18.275128)">
                <path d="M870.773,1353.616C857.686,1355.598 864.74,1359.276 864.74,1365.546C864.74,1371.816 866.779,1392.761 874.402,1391.067C882.024,1389.373 893.797,1350.129 870.773,1353.616Z"/>
            </g>
            <g transform="matrix(0.090918,0,0,0.090918,62.385576,-17.085715)">
                <path d="M872.051,1368.856C867.498,1368.761 869.092,1369.845 865.62,1375.066C860.846,1382.245 863.227,1391.198 870.849,1389.504C876.261,1388.302 878.548,1391.667 880.211,1380.181C880.891,1375.49 876.605,1368.95 872.051,1368.856Z"/>
            </g>
            <g transform="matrix(0.090918,0,0,0.090918,59.570096,-19.305485)">
                <path d="M882.424,1343.096C876.988,1331.027 871.276,1358.139 861.187,1371.656C857.437,1376.681 863.275,1387.609 870.849,1389.504C884.218,1392.849 888.551,1379.874 886.804,1368.388C886.092,1363.702 885.681,1350.325 882.424,1343.096Z"/>
            </g>
            <g transform="matrix(0.090918,0,0,0.090918,82.158357,-15.798003)">
                <path d="M678.002,1212.078C678.002,1212.078 673.982,1208.304 667.765,1212.966C661.549,1217.628 658.44,1215.852 658.218,1228.063C657.996,1240.274 656.442,1246.934 657.33,1253.373C658.218,1259.811 654.222,1261.81 659.773,1259.811C665.323,1257.813 669.985,1252.707 671.761,1248.045C673.538,1243.382 672.921,1235.612 678.002,1231.615C683.084,1227.619 687.303,1224.238 687.525,1218.713C687.747,1213.188 691.743,1205.417 687.747,1202.531C683.75,1199.645 682.467,1210.968 678.002,1212.078Z"/>
            </g>
            <g transform="matrix(0.090918,0,0,0.090918,82.158357,-15.798003)">
                <path d="M613.972,1260.554C613.972,1260.554 610.641,1250.703 613.417,1241.822C616.192,1232.942 623.13,1229.334 624.24,1223.784C625.35,1218.233 622.297,1213.793 626.738,1206.855C631.178,1199.917 633.12,1195.199 638.393,1196.032C643.666,1196.864 637.838,1210.463 635.618,1217.123C633.398,1223.784 630.623,1227.391 630.345,1235.162C630.068,1242.933 625.072,1261.802 613.972,1260.554Z"/>
            </g>
            <g transform="matrix(0.090918,0,0,0.090918,82.158357,-15.798003)">
                <path d="M699.21,1124.395C699.21,1124.395 687.191,1122.227 689.515,1128.731C691.838,1135.235 699.609,1140.508 699.609,1140.508C699.609,1140.508 711.82,1147.724 716.538,1144.671C721.256,1141.618 719.868,1136.9 715.983,1134.403C712.097,1131.905 704.362,1124.932 699.21,1124.395Z"/>
            </g>
            <g transform="matrix(0.090918,0,0,0.090918,82.158357,-15.798003)">
                <path d="M698.634,1145.424C692.93,1141.209 693.397,1135.372 689.216,1145.424C685.035,1155.476 680.04,1157.973 682.815,1160.193C685.59,1162.414 694.749,1165.466 698.079,1162.691C701.409,1159.916 704.282,1162.691 704.372,1156.586C704.462,1150.48 704.184,1149.526 698.634,1145.424Z"/>
            </g>
            <g transform="matrix(0.090918,0,0,0.090918,82.158357,-15.798003)">
                <path d="M700.019,1289.401C688.881,1288.93 686.728,1295.796 678.002,1313.575C669.277,1331.354 674.914,1331.787 674.914,1331.787C674.914,1331.787 683.139,1341.761 689.216,1330.053C695.294,1318.345 690.597,1310.188 693.199,1303.643C695.8,1297.097 708.764,1289.771 700.019,1289.401Z"/>
            </g>
            <g transform="matrix(0.090918,0,0,0.090918,82.158357,-15.798003)">
                <path d="M892.945,1245.403C889.483,1246.362 892.512,1263.09 893.379,1272.092C894.246,1281.094 897.715,1296.061 895.114,1298.768C892.512,1301.475 893.813,1303.643 901.184,1303.643C908.556,1303.643 908.556,1292.802 907.689,1285.864C906.821,1278.926 896.408,1244.443 892.945,1245.403Z"/>
            </g>
            <g transform="matrix(0.090918,0,0,0.090918,82.158357,-15.798003)">
                <path d="M678.002,1083.579C678.002,1083.579 670.956,1085.841 666.186,1094.514C661.416,1103.186 662.284,1091.414 664.018,1103.154C665.753,1114.894 664.885,1119.231 670.089,1115.762C675.292,1112.293 684.182,1092.156 678.002,1083.579Z"/>
            </g>
            <g transform="matrix(0.090918,0,0,0.090918,82.158357,-15.798003)">
                <path d="M656.213,1123.133C656.213,1123.133 649.275,1117.432 648.408,1129.606C647.54,1141.779 651.877,1145.682 646.673,1151.752C641.47,1157.823 643.204,1162.159 648.408,1161.726C653.611,1161.292 659.09,1164.761 662.638,1156.089C666.186,1147.416 662.125,1141.779 662.638,1136.142C663.151,1130.505 660.983,1128.77 656.213,1123.133Z"/>
            </g>
            <g transform="matrix(0.090918,0,0,0.090918,91.676028,-1.134669)">
                <path d="M656.213,1123.133C656.213,1123.133 649.275,1117.432 648.408,1129.606C647.54,1141.779 643.632,1136.801 638.429,1142.872C633.225,1148.943 643.204,1162.159 648.408,1161.726C653.611,1161.292 661.141,1158.562 662.638,1156.089C664.135,1153.615 656.879,1152.522 657.392,1146.885C657.904,1141.247 660.983,1128.77 656.213,1123.133Z"/>
            </g>
            <g transform="matrix(0.090918,0,0,0.090918,82.158357,-15.798003)">
                <path d="M729.72,1175.02C729.72,1175.02 744.134,1190.603 729.72,1200.766C715.305,1210.929 706.497,1217.705 711.918,1227.868C717.338,1238.031 709.58,1246.161 729.72,1247.516C749.86,1248.872 734.672,1244.129 745.315,1233.288C755.958,1222.448 765.443,1223.125 768.831,1205.509C772.219,1187.893 768.153,1177.549 775.606,1162.056C783.059,1146.563 790.512,1133.69 768.831,1130.98C747.15,1128.27 748.9,1129.162 745.315,1141.928C741.729,1154.694 731.261,1153.339 729.72,1175.02Z"/>
            </g>
            <g transform="matrix(0.090918,0,0,0.090918,82.158357,-15.798003)">
                <path d="M822.534,1221.165C818.469,1215.067 809.435,1221.758 805.852,1225.941C799.157,1233.757 791.38,1250.678 805.852,1247.742C820.324,1244.806 819.225,1239.167 833.454,1255.202C847.682,1271.237 846.924,1273.886 858.402,1271.158C870.892,1268.19 852.846,1235.998 840.65,1232.611C828.454,1229.223 826.599,1227.262 822.534,1221.165Z"/>
            </g>
            <g transform="matrix(0.090918,0,0,0.090918,82.158357,-15.798003)">
                <path d="M547.751,1029.345C552.607,1032.12 553.648,1034.548 568.218,1031.773C582.788,1028.998 578.278,1023.794 585.563,1021.713C592.848,1019.631 606.03,1023.1 612.621,1013.387C619.212,1003.674 621.988,1006.102 620.253,998.817C618.519,991.533 596.595,993.589 596.595,993.589L576.996,996.339C576.996,996.339 556.943,1000.289 551.74,1003.022C546.536,1005.755 539.306,1009.259 539.306,1014.809C539.306,1020.36 542.894,1026.569 547.751,1029.345Z"/>
            </g>
            <g transform="matrix(0.090918,0,0,0.090918,82.067439,-15.798003)">
                <path d="M600.393,993.302C598.219,993.8 610.126,1002.125 616.14,1002.819C622.155,1003.513 636.031,1002.472 645.744,999.003C655.458,995.534 673.496,982.699 678.7,975.067C683.903,967.435 688.413,954.6 687.372,949.743C686.876,947.427 667.764,961.343 647.457,972.166C625.19,984.035 601.529,993.042 600.393,993.302Z" style="fill:rgb(166,76,73);"/>
            </g>
            <g transform="matrix(0.090918,0,0,0.090918,82.158357,-15.798003)">
                <path d="M747.126,930.49C742.269,926.328 720.068,951.651 720.762,959.63C721.455,967.609 724.802,970.037 729.72,967.609C734.638,965.181 743.657,950.958 745.391,944.367C747.126,937.775 751.983,934.653 747.126,930.49Z"/>
            </g>
            <g transform="matrix(0.090918,0,0,0.090918,82.158357,-15.798003)">
                <path d="M818.934,918.845C818.934,918.845 806.446,924.593 807.487,933.959C808.527,943.326 807.834,948.624 814.078,949.27C820.322,949.917 830.382,942.979 830.382,936.735C830.382,930.49 834.545,914.88 828.301,914.88C822.056,914.88 824.832,915.525 818.934,918.845Z"/>
            </g>
            <g transform="matrix(0.090918,0,0,0.090918,82.158357,-15.798003)">
                <path d="M767.94,957.722C761.349,961.191 758.227,967.782 759.961,974.72C761.696,981.658 765.859,988.596 771.756,988.596C777.653,988.596 785.285,985.474 785.979,980.271C786.673,975.067 791.876,964.313 786.326,959.804C780.775,955.294 774.531,954.253 767.94,957.722Z"/>
            </g>
            <g transform="matrix(0.090918,0,0,0.090918,82.158357,-15.798003)">
                <path d="M667.686,784.359C663.523,784.012 661.095,789.562 662.829,792.684C664.564,795.806 666.992,799.275 674.277,800.316C681.562,801.357 684.337,797.888 683.643,794.766C682.949,791.644 683.99,789.215 677.746,786.093C671.502,782.971 671.849,784.706 667.686,784.359Z"/>
            </g>
            <g transform="matrix(0.090918,0,0,0.090918,82.158357,-15.798003)">
                <path d="M540.373,893.979C534.711,891.148 533.435,902.652 533.435,902.652C533.435,902.652 533.088,908.896 539.333,908.896C545.577,908.896 553.269,903.519 553.269,900.05C553.269,896.581 543.149,895.367 540.373,893.979Z"/>
            </g>
            <g transform="matrix(0.089489,0.016055,-0.016055,0.089489,98.693472,-21.814777)">
                <path d="M540.373,893.979C534.711,891.148 533.435,902.652 533.435,902.652C533.435,902.652 533.088,908.896 539.333,908.896C545.577,908.896 552.022,907.719 552.022,904.25C552.022,900.781 543.149,895.367 540.373,893.979Z"/>
            </g>
            <g transform="matrix(0.010742,-0.090281,0.090281,0.010742,44.065553,107.71543)">
                <path d="M540.373,893.979C534.711,891.148 533.435,902.652 533.435,902.652C533.435,902.652 533.088,908.896 539.333,908.896C545.577,908.896 548.005,905.08 548.005,901.611C548.005,898.142 543.149,895.367 540.373,893.979Z"/>
            </g>
            <g transform="matrix(0.090918,0,0,0.090918,82.158357,-15.798003)">
                <path d="M479.229,930.528C479.229,930.528 485.057,938.576 495.603,934.691C506.149,930.805 502.818,922.202 511.422,914.987C520.025,907.771 527.795,905.828 525.575,897.225C523.355,888.622 517.527,886.124 505.316,885.569C493.105,885.014 490.053,883.627 482.004,883.072C473.956,882.517 468.939,893.933 470.34,903.053C471.624,911.41 475.899,930.25 479.229,930.528Z"/>
            </g>
            <g transform="matrix(0.090918,0,0,0.090918,82.158357,-15.798003)">
                <path d="M757.151,761.557C761.946,761.888 765.633,764.32 774.999,766.748C784.365,769.177 824.606,786.869 833.279,793.113C841.951,799.357 868.662,821.906 866.234,832.313C863.806,842.72 845.073,878.104 830.503,888.164C815.933,898.224 798.588,923.058 784.365,921.915C770.143,920.772 761.47,908.39 761.47,908.39C761.47,908.39 753.572,852.78 756,832.66C758.679,810.465 761.47,812.192 760.429,795.541C759.512,780.87 748.215,766.07 745.324,760.578C745.014,759.99 752.872,761.261 757.151,761.557Z" style="fill:rgb(28,15,15);"/>
            </g>
            <g transform="matrix(0.090918,0,0,0.090918,82.158357,-15.798003)">
                <path d="M811.076,790.945C817.736,788.725 831.946,795.385 831.946,795.385C831.946,795.385 847.265,804.044 849.707,814.479C852.149,824.913 834.388,828.91 829.503,824.913C824.619,820.917 830.169,815.367 821.067,810.482C811.964,805.598 807.944,809.594 804.737,802.712C801.529,795.829 804.415,793.165 811.076,790.945Z" style="fill:white;"/>
            </g>
            <g transform="matrix(0.090918,0,0,0.090918,82.158357,-15.798003)">
                <path d="M786.876,847.115C786.654,839.122 789.984,835.792 797.089,839.122C804.193,842.453 806.39,852.443 804.737,861.324C803.083,870.205 797.089,874.201 781.548,873.535C766.007,872.869 766.229,868.429 764.231,865.32C762.232,862.212 763.342,850.667 771.779,848.669C780.216,846.671 787.098,855.108 786.876,847.115Z" style="fill:white;"/>
            </g>
            <g transform="matrix(0.090918,0,0,0.090918,82.158357,-15.798003)">
                <path d="M767.561,894.182C766.451,897.036 762.297,894.593 763.375,898.845C764.453,903.096 770.003,898.401 772.445,901.287C774.887,904.173 772.667,912.799 778.44,913.276C784.212,913.753 786.876,906.648 786.876,906.648C786.876,906.648 790.861,896.88 784.317,892.217C777.774,887.555 768.671,891.329 767.561,894.182Z" style="fill:white;"/>
            </g>
            <g transform="matrix(0.101603,0,0,0.101603,76.243071,-24.462097)">
                <path d="M594.454,846.889C594.454,846.889 596.397,850.22 601.392,848.554C606.388,846.889 612.771,841.616 619.431,841.894C626.092,842.171 635.569,841.44 640.183,838.523C644.798,835.605 647.68,828.55 647.117,824.387C646.528,820.039 641.752,816.117 636.16,813.582C631.543,811.489 623.093,810.926 619.566,811.647C617.034,812.165 616.841,816.758 614.708,818.623C612.565,820.496 608.467,820.431 606.706,822.888C603.331,827.599 592.512,843.282 594.454,846.889Z"/>
            </g>
            <g transform="matrix(0.101603,0,0,0.101603,76.243071,-24.462097)">
                <path d="M610.91,832.545C609.739,827.851 614.436,821.912 623.871,821.08C633.307,820.247 639.411,820.324 640.143,826.183C640.856,831.881 631.876,834.548 626.326,834.548C620.775,834.548 612.687,839.662 610.91,832.545Z" style="fill:white;"/>
            </g>
            <g transform="matrix(0.101603,0,0,0.122244,76.326491,-41.587003)">
                <path d="M624.226,821.717C621.913,821.717 618.876,822.932 617.766,827.279C616.656,831.626 622.761,834.401 626.23,833.568C629.699,832.736 631.642,832.09 631.642,827.279C631.642,822.468 626.538,821.717 624.226,821.717Z" style="fill:rgb(33,15,13);"/>
            </g>
            <g transform="matrix(0.090918,0,0,0.090918,82.158357,-15.798003)">
                <path d="M678.002,899.79C678.002,899.79 675.664,899.443 673.583,904.3C671.502,909.156 680.868,908.115 687.459,911.584C694.05,915.053 695.785,921.298 702.723,917.829C709.661,914.36 704.804,906.034 698.213,902.565C691.622,899.096 685.544,896.321 678.002,899.79Z"/>
            </g>
            <g transform="matrix(0.090918,0,0,0.090918,82.158357,-15.798003)">
                <path d="M687.523,1008C687.523,1008 682.664,1002.907 682.664,1013.966C682.664,1025.026 698.13,1064.052 708.609,1066.22C719.088,1068.388 708.609,1037.167 708.609,1037.167C708.609,1037.167 699.754,1012.222 687.523,1008Z"/>
            </g>
            <g transform="matrix(0.090918,0,0,0.090918,82.158357,-15.798003)">
                <path d="M813.619,955.646C812.318,963.451 802.778,974.291 814.486,977.327C826.194,980.362 820.123,980.796 820.123,980.796C820.123,980.796 816.654,973.424 817.088,988.601C817.521,1003.778 820.123,1013.314 831.397,1013.966C842.672,1014.619 850.477,1005.512 851.344,997.274C852.211,989.035 856.114,975.159 849.176,963.451C842.238,951.743 840.504,952.61 840.937,945.239C841.371,937.867 843.105,932.663 833.566,931.796C824.026,930.929 814.92,947.84 813.619,955.646Z"/>
            </g>
            <g transform="matrix(0.090918,0,0,0.090918,82.158357,-15.798003)">
                <path d="M848.742,1083.89C841.804,1086.492 840.937,1088.66 840.07,1099.934C839.203,1111.209 844.257,1120.315 853.221,1122.483C862.185,1124.651 864.353,1112.076 863.486,1103.837C862.618,1095.598 855.68,1081.288 848.742,1083.89Z"/>
            </g>
            <g transform="matrix(0.090918,0,0,0.090918,82.158357,-15.798003)">
                <path d="M778.929,1027.085C778.929,1027.085 768.088,1030.895 771.124,1036.579C774.159,1042.262 763.752,1054.836 768.955,1066.328C774.159,1077.819 781.964,1092.498 781.097,1103.154C780.23,1113.81 784.566,1133.323 800.176,1128.987C815.787,1124.651 818.389,1118.95 813.619,1103.154C808.849,1087.359 798.876,1099.311 798.442,1083.579C798.008,1067.846 809.283,1057.005 803.212,1046.165C797.141,1035.324 794.973,1025.351 778.929,1027.085"/>
            </g>
        </g>
        <g transform="matrix(0.997128,0.075734,-0.075734,0.997128,34.342822,-81.979109)">
            <path d="M654.711,368.823C656.728,367.845 658.836,367.143 661.036,366.715C663.236,366.287 665.421,366.195 667.59,366.44C669.76,366.684 671.868,367.265 673.915,368.181C675.963,369.098 677.842,370.381 679.553,372.031C680.958,373.437 682.181,375.133 683.22,377.119C684.258,379.105 685.022,381.045 685.511,382.94C686.55,386.301 686.703,389.693 685.97,393.115C685.236,396.537 683.983,399.715 682.211,402.648C681.356,403.993 680.302,405.199 679.049,406.269C677.796,407.338 676.467,408.209 675.061,408.881C673.228,409.737 671.242,410.333 669.103,410.669C666.964,411.005 664.886,411.081 662.87,410.898C659.203,410.715 655.979,409.798 653.199,408.148C650.418,406.498 648.188,404.39 646.507,401.823C644.827,399.256 643.727,396.338 643.207,393.069C642.688,389.799 642.886,386.454 643.803,383.031C644.781,379.365 646.202,376.386 648.065,374.094C649.929,371.802 652.145,370.045 654.711,368.823ZM657.461,381.106C656.545,381.962 655.842,383.031 655.353,384.315C654.864,385.598 654.558,386.927 654.436,388.302C654.314,389.677 654.421,391.052 654.757,392.427C655.093,393.802 655.628,395.04 656.361,396.14C656.972,397.056 658.072,397.82 659.661,398.431C661.25,399.043 662.9,399.409 664.611,399.531C666.567,399.654 668.278,399.119 669.745,397.927C671.211,396.736 672.327,395.254 673.09,393.481C673.854,391.709 674.206,389.784 674.145,387.706C674.083,385.629 673.533,383.734 672.495,382.023C671.761,380.801 670.738,379.899 669.424,379.319C668.11,378.738 666.735,378.433 665.299,378.402C663.863,378.372 662.442,378.586 661.036,379.044C659.631,379.502 658.439,380.19 657.461,381.106Z" style="fill:rgb(28,58,74);fill-rule:nonzero;stroke:rgb(28,58,74);stroke-width:1.21px;"/>
        </g>
        <g transform="matrix(0.706386,0,0,0.706386,171.050553,85.408653)">
            <path d="M478.024,487.548C477.352,487.426 476.679,487.319 476.007,487.227C475.335,487.136 474.663,486.998 473.99,486.815C471.546,486.326 469.208,485.44 466.978,484.156C464.747,482.873 463.082,481.04 461.982,478.656C461.004,476.701 460.347,474.593 460.011,472.331C459.675,470.07 459.599,467.87 459.782,465.731C459.904,463.593 460.347,461.423 461.111,459.223C461.875,457.023 463.021,455.159 464.549,453.631C464.671,453.509 464.915,453.28 465.282,452.944C465.649,452.608 466.046,452.256 466.474,451.89C466.902,451.523 467.299,451.202 467.665,450.927C468.032,450.652 468.246,450.545 468.307,450.606C467.085,449.079 466.122,447.398 465.42,445.565C464.717,443.731 464.274,441.852 464.09,439.927C463.907,438.002 463.922,436.077 464.136,434.152C464.35,432.227 464.763,430.409 465.374,428.698C466.352,425.826 467.879,423.534 469.957,421.823C472.035,420.112 474.388,418.936 477.015,418.294C479.643,417.652 482.363,417.499 485.174,417.836C487.985,418.172 490.582,418.981 492.965,420.265C495.715,421.609 497.717,423.611 498.97,426.269C500.222,428.927 500.971,431.723 501.215,434.656C501.338,436.184 501.383,437.743 501.353,439.331C501.322,440.92 501.124,442.479 500.757,444.006C500.39,445.534 499.81,446.97 499.015,448.315C498.221,449.659 497.121,450.82 495.715,451.798C496.265,452.287 496.831,452.852 497.411,453.494C497.992,454.136 498.435,454.701 498.74,455.19C499.413,456.045 500.054,457.176 500.665,458.581L502.682,462.89C502.621,462.768 502.697,462.538 502.911,462.202C503.125,461.866 503.385,461.515 503.69,461.148C503.996,460.781 504.286,460.43 504.561,460.094C504.836,459.758 505.004,459.559 505.065,459.498C505.554,458.826 506.135,458.123 506.807,457.39C507.479,456.656 508.197,455.999 508.961,455.419C509.725,454.838 510.535,454.426 511.39,454.181C512.246,453.937 513.132,453.937 514.049,454.181C514.904,454.426 515.47,454.838 515.745,455.419C516.02,455.999 516.096,456.672 515.974,457.436C515.852,458.199 515.592,458.994 515.195,459.819C514.797,460.644 514.37,461.438 513.911,462.202C513.453,462.966 513.01,463.654 512.582,464.265C512.154,464.876 511.818,465.334 511.574,465.64C511.024,466.495 510.489,467.305 509.97,468.069C509.45,468.833 508.915,469.612 508.365,470.406C508.304,470.529 508.045,470.849 507.586,471.369C507.128,471.888 506.929,472.209 506.99,472.331C507.357,473.065 507.953,474.18 508.778,475.677C509.603,477.174 510.26,478.718 510.749,480.306C511.238,481.895 511.39,483.377 511.207,484.752C511.024,486.127 510.138,487.029 508.549,487.456C507.388,487.762 506.211,487.609 505.02,486.998C503.828,486.387 502.865,485.654 502.132,484.798C502.01,484.676 501.781,484.37 501.445,483.881C501.108,483.393 500.772,482.858 500.436,482.277C500.1,481.697 499.825,481.131 499.611,480.581C499.397,480.031 499.352,479.634 499.474,479.39C498.313,480.795 497.106,482.063 495.853,483.194C494.6,484.324 493.149,485.226 491.499,485.898C489.36,486.754 487.16,487.288 484.899,487.502C482.638,487.716 480.346,487.731 478.024,487.548ZM484.532,477.74C485.449,477.618 486.427,477.358 487.465,476.961C488.504,476.563 489.513,476.059 490.49,475.448C491.468,474.837 492.339,474.149 493.103,473.386C493.867,472.622 494.432,471.781 494.799,470.865C494.921,470.437 494.89,469.933 494.707,469.352C494.524,468.772 494.279,468.176 493.974,467.565C493.668,466.954 493.363,466.373 493.057,465.823C492.752,465.273 492.507,464.815 492.324,464.448C491.835,463.287 491.208,462.126 490.445,460.965C489.681,459.804 488.779,458.918 487.74,458.306C485.479,456.962 483.096,456.443 480.59,456.748C478.207,456.993 476.114,457.909 474.311,459.498C472.508,461.087 471.515,463.195 471.332,465.823C471.21,467.229 471.24,468.711 471.424,470.269C471.607,471.827 472.096,473.156 472.89,474.256C474.052,475.723 475.763,476.747 478.024,477.327C480.285,477.908 482.454,478.045 484.532,477.74ZM484.349,446.39C486.365,446.268 487.832,445.565 488.749,444.281C489.665,442.998 490.215,441.501 490.399,439.79C490.582,438.873 490.704,437.972 490.765,437.086C490.827,436.199 490.796,435.329 490.674,434.473C490.552,433.618 490.277,432.808 489.849,432.044C489.421,431.28 488.749,430.593 487.832,429.981C486.549,429.065 485.052,428.545 483.34,428.423C481.629,428.301 480.071,428.698 478.665,429.615C477.504,430.287 476.649,431.097 476.099,432.044C475.549,432.991 475.213,434.076 475.09,435.298C474.907,436.765 474.953,438.216 475.228,439.652C475.503,441.088 476.007,442.341 476.74,443.411C477.474,444.48 478.467,445.305 479.72,445.886C480.972,446.466 482.515,446.634 484.349,446.39Z" style="fill:rgb(4,186,222);fill-rule:nonzero;"/>
        </g>
        <g transform="matrix(0.706386,0,0,0.706386,152.132463,85.155656)">
            <path d="M603.699,469.856C604.493,471.629 604.524,473.355 603.79,475.036C603.057,476.716 601.896,478.259 600.307,479.665C598.718,481.07 596.9,482.293 594.853,483.331C592.806,484.37 590.865,485.104 589.032,485.531C587.015,485.959 584.892,486.158 582.661,486.127C580.431,486.097 578.2,485.822 575.97,485.302C573.739,484.783 571.57,484.019 569.461,483.011C567.353,482.002 565.413,480.765 563.64,479.298C561.502,477.526 559.836,475.402 558.645,472.927C557.453,470.452 556.582,467.809 556.032,464.998C555.482,462.187 555.192,459.361 555.161,456.519C555.131,453.677 555.207,451.004 555.39,448.498C555.574,446.237 556.032,443.884 556.765,441.44C557.499,438.995 558.522,436.597 559.836,434.244C561.15,431.891 562.739,429.706 564.603,427.69C566.467,425.673 568.652,423.962 571.157,422.556C573.052,421.456 575.175,420.708 577.528,420.311C579.881,419.913 582.264,419.822 584.678,420.036C587.092,420.249 589.383,420.769 591.553,421.594C593.722,422.419 595.571,423.534 597.099,424.94C598.077,425.795 599.1,426.987 600.17,428.515C601.239,430.043 602.018,431.601 602.507,433.19C602.996,434.779 603.011,436.261 602.553,437.636C602.095,439.011 600.857,439.943 598.84,440.431C597.985,440.676 597.221,440.722 596.549,440.569C595.877,440.416 595.265,440.141 594.715,439.744C594.165,439.347 593.646,438.873 593.157,438.323C592.668,437.773 592.21,437.223 591.782,436.673C590.315,434.901 588.604,433.694 586.649,433.052C584.693,432.411 582.753,432.258 580.828,432.594C578.903,432.93 577.1,433.724 575.42,434.977C573.739,436.23 572.44,437.834 571.524,439.79C570.546,441.868 569.767,444.144 569.186,446.619C568.606,449.094 568.285,451.599 568.224,454.136C568.163,456.672 568.392,459.131 568.911,461.515C569.431,463.898 570.332,466.006 571.615,467.84C572.593,469.306 573.8,470.498 575.236,471.415C576.672,472.331 578.215,472.973 579.865,473.34C581.515,473.706 583.181,473.768 584.861,473.523C586.542,473.279 588.177,472.729 589.765,471.873C590.254,471.629 590.789,471.277 591.37,470.819C591.95,470.361 592.546,469.887 593.157,469.398C593.768,468.909 594.395,468.451 595.036,468.023C595.678,467.595 596.365,467.29 597.099,467.106C598.199,466.74 599.406,466.77 600.72,467.198C602.033,467.626 603.027,468.512 603.699,469.856Z" style="fill:rgb(4,186,222);fill-rule:nonzero;"/>
        </g>
        <g transform="matrix(0.690988,0.052482,-0.052838,0.695678,161.189152,107.285135)">
            <path d="M654.711,368.823C656.728,367.845 658.836,367.143 661.036,366.715C663.236,366.287 665.421,366.195 667.59,366.44C669.76,366.684 671.868,367.265 673.915,368.181C675.963,369.098 677.842,370.381 679.553,372.031C680.958,373.437 682.181,375.133 683.22,377.119C684.258,379.105 685.022,381.045 685.511,382.94C686.55,386.301 686.703,389.693 685.97,393.115C685.236,396.537 683.983,399.715 682.211,402.648C681.356,403.993 680.302,405.199 679.049,406.269C677.796,407.338 676.467,408.209 675.061,408.881C673.228,409.737 671.242,410.333 669.103,410.669C666.964,411.005 664.886,411.081 662.87,410.898C659.203,410.715 655.979,409.798 653.199,408.148C650.418,406.498 648.188,404.39 646.507,401.823C644.827,399.256 643.727,396.338 643.207,393.069C642.688,389.799 642.886,386.454 643.803,383.031C644.781,379.365 646.202,376.386 648.065,374.094C649.929,371.802 652.145,370.045 654.711,368.823ZM658.81,380.322C659.015,377.547 660.755,375.185 662.671,375.42C664.586,375.655 665.936,378.599 665.747,381.172C665.589,383.31 663.909,384.853 661.993,384.618C660.078,384.383 658.653,382.46 658.81,380.322ZM674.383,393.93C672.547,393.305 671.614,391.163 672.299,389.146C673.123,386.719 675.495,384.627 677.331,385.253C679.167,385.878 679.838,388.792 678.949,391.411C678.263,393.427 676.219,394.555 674.383,393.93ZM655.222,390.062C653.303,389.929 651.763,388.078 651.785,385.927C651.813,383.134 653.394,380.675 655.314,380.808C657.234,380.941 658.762,383.819 658.737,386.408C658.715,388.559 657.142,390.195 655.222,390.062ZM668.806,401.663C666.121,401.122 665.253,399.845 663.532,399.497C661.81,399.149 660.58,400.003 657.896,399.461C654.382,398.751 652.445,394.267 656.075,392.294C660.587,389.842 662.407,385.98 665.709,386.647C669.012,387.314 669.446,391.631 672.855,395.682C675.598,398.942 672.32,402.373 668.806,401.663ZM667.469,381.52C668.136,379.043 670.361,376.821 672.227,377.349C674.093,377.878 674.944,380.762 674.225,383.434C673.672,385.492 671.71,386.732 669.845,386.203C667.979,385.675 666.916,383.578 667.469,381.52Z" style="fill:rgb(4,186,222);stroke:rgb(4,186,222);stroke-width:1.02px;"/>
        </g>
    </g>
</svg>
