<?xml version="1.0" encoding="UTF-8" standalone="no"?>
<!DOCTYPE svg PUBLIC "-//W3C//DTD SVG 1.1//EN" "http://www.w3.org/Graphics/SVG/1.1/DTD/svg11.dtd">
<svg width="100%" height="100%" viewBox="0 0 987 907" version="1.1" xmlns="http://www.w3.org/2000/svg" xmlns:xlink="http://www.w3.org/1999/xlink" xml:space="preserve" xmlns:serif="http://www.serif.com/" style="fill-rule:evenodd;clip-rule:evenodd;stroke-linejoin:round;stroke-miterlimit:2;">
    <g transform="matrix(1.20935,0.196954,-0.185794,1.140825,-120.06842,-450.248354)">
        <path d="M354.62,846.029C301.597,863.055 241.728,824.268 220.914,759.407C193.883,675.204 212.01,583.98 265.044,566.965C318.067,549.939 387.869,619.689 412.934,697.768C433.748,762.629 407.654,829.003 354.62,846.029Z" style="fill:white;fill-rule:nonzero;"/>
    </g>
    <g transform="matrix(1.20935,0.196954,-0.185794,1.140825,-120.06842,-450.248354)">
        <path d="M835.854,1045.89C758.167,1059.01 722.077,1030.15 672.255,1038.55C622.423,1046.96 597.81,1086.06 520.123,1099.16C418.421,1116.31 321.66,1002.79 399.8,903.756C496.911,780.694 507.513,644.724 603.091,628.604C698.679,612.484 753.298,737.44 885.408,821.838C991.711,889.757 937.546,1028.74 835.854,1045.89Z" style="fill:white;fill-rule:nonzero;"/>
    </g>
    <g transform="matrix(1.20935,0.196954,-0.185794,1.140825,-120.06842,-450.248354)">
        <path d="M599.488,455.277C592.797,373.555 630.637,282.414 686.131,277.864C741.645,273.325 793.268,350.683 800.484,438.818C806.043,506.715 765.557,565.441 710.053,569.981C654.55,574.531 605.047,523.175 599.488,455.277Z" style="fill:white;fill-rule:nonzero;"/>
    </g>
    <g transform="matrix(1.20935,0.196954,-0.185794,1.140825,-120.06842,-450.248354)">
        <path d="M354.363,514.075C332.272,428.452 355.66,338.433 409.589,324.526C463.508,310.609 529.151,384.292 549.636,463.687C566.661,529.65 536.748,594.398 482.829,608.315C428.9,622.232 371.389,580.038 354.363,514.075Z" style="fill:white;fill-rule:nonzero;"/>
    </g>
    <g transform="matrix(1.20935,0.196954,-0.185794,1.140825,-120.06842,-450.248354)">
        <path d="M909.145,752.479C853.466,753.797 807.031,699.651 805.415,631.548C803.48,549.579 846.549,460.785 902.217,459.477C957.896,458.16 1004.95,538.379 1007.04,626.782C1008.64,694.885 964.814,751.161 909.145,752.479Z" style="fill:white;fill-rule:nonzero;"/>
    </g>
</svg>
