<?xml version="1.0" encoding="UTF-8" standalone="no"?>
<!DOCTYPE svg PUBLIC "-//W3C//DTD SVG 1.1//EN" "http://www.w3.org/Graphics/SVG/1.1/DTD/svg11.dtd">
<svg width="100%" height="100%" viewBox="0 0 987 907" version="1.1" xmlns="http://www.w3.org/2000/svg" xmlns:xlink="http://www.w3.org/1999/xlink" xml:space="preserve" xmlns:serif="http://www.serif.com/" style="fill-rule:evenodd;clip-rule:evenodd;stroke-linecap:round;stroke-linejoin:round;stroke-miterlimit:1.5;">
    <g transform="matrix(3.988622,0.324725,-0.324725,3.988622,-2578.938416,-4918.23623)">
        <path d="M885.124,1354.463C879.687,1342.395 861.187,1365.386 861.187,1371.656C861.187,1377.926 863.227,1391.198 870.849,1389.504C876.261,1388.302 886.846,1383.71 888.51,1372.224C889.189,1367.533 888.38,1361.692 885.124,1354.463Z" style="stroke:black;stroke-width:0.25px;"/>
    </g>
    <g transform="matrix(4.77015,0.388351,-0.388351,4.77015,-3499.916374,-6422.322063)">
        <path d="M882.424,1343.096C876.988,1331.027 871.276,1358.139 861.187,1371.656C857.437,1376.681 863.275,1387.609 870.849,1389.504C884.218,1392.849 888.551,1379.874 886.804,1368.388C886.092,1363.702 885.681,1350.325 882.424,1343.096Z" style="stroke:black;stroke-width:0.21px;"/>
    </g>
    <g transform="matrix(5.525972,0.449885,-0.324725,3.988622,-2899.44281,-4364.72494)">
        <path d="M656.213,1123.133C656.213,1123.133 649.275,1117.432 648.408,1129.606C647.54,1141.779 651.877,1145.682 646.673,1151.752C641.47,1157.823 643.204,1162.159 648.408,1161.726C653.611,1161.292 659.09,1164.761 662.638,1156.089C666.186,1147.416 662.125,1141.779 662.638,1136.142C663.151,1130.505 660.983,1128.77 656.213,1123.133Z" style="stroke:black;stroke-width:0.21px;"/>
    </g>
    <g transform="matrix(3.988622,0.324725,-0.324725,3.988622,-2363.785513,-3859.247261)">
        <path d="M747.126,930.49C742.269,926.328 720.068,951.651 720.762,959.63C721.455,967.609 724.802,970.037 729.72,967.609C734.638,965.181 743.657,950.958 745.391,944.367C747.126,937.775 751.983,934.653 747.126,930.49Z" style="stroke:black;stroke-width:0.25px;"/>
    </g>
    <g transform="matrix(5.597153,0.45568,-0.45568,5.597153,-3381.933805,-5482.007731)">
        <path d="M767.94,957.722C761.349,961.191 758.227,967.782 759.961,974.72C761.696,981.658 765.859,988.596 771.756,988.596C777.653,988.596 785.285,985.474 785.979,980.271C786.673,975.067 791.876,964.313 786.326,959.804C780.775,955.294 774.531,954.253 767.94,957.722Z" style="stroke:black;stroke-width:0.18px;"/>
    </g>
    <g transform="matrix(3.988622,0.324725,-0.324725,3.988622,-2835.513778,-3944.983184)">
        <path d="M848.742,1083.89C841.804,1086.492 840.937,1088.66 840.07,1099.934C839.203,1111.209 844.257,1120.315 853.221,1122.483C862.185,1124.651 864.353,1112.076 863.486,1103.837C862.618,1095.598 855.68,1081.288 848.742,1083.89Z" style="stroke:black;stroke-width:0.25px;"/>
    </g>
    <g transform="matrix(2.023919,3.45229,-3.45229,2.023919,3701.004775,-5618.644297)">
        <path d="M885.124,1354.463C879.687,1342.395 861.187,1365.386 861.187,1371.656C861.187,1377.926 863.227,1391.198 870.849,1389.504C876.261,1388.302 886.846,1383.71 888.51,1372.224C889.189,1367.533 888.38,1361.692 885.124,1354.463Z" style="stroke:black;stroke-width:0.25px;"/>
    </g>
    <g transform="matrix(5.164571,0.420462,-0.324725,3.988622,-3537.045904,-5240.748714)">
        <path d="M882.424,1343.096C876.988,1331.027 871.276,1358.139 861.187,1371.656C857.437,1376.681 863.275,1387.609 870.849,1389.504C884.218,1392.849 888.551,1379.874 886.804,1368.388C886.092,1363.702 885.681,1350.325 882.424,1343.096Z" style="stroke:black;stroke-width:0.22px;"/>
    </g>
    <g transform="matrix(-4.760207,-1.906053,1.487563,-3.715065,2130.753181,6166.681308)">
        <path d="M656.213,1123.133C656.213,1123.133 649.275,1117.432 648.408,1129.606C647.54,1141.779 651.877,1145.682 646.673,1151.752C641.47,1157.823 643.204,1162.159 648.408,1161.726C653.611,1161.292 659.09,1164.761 662.638,1156.089C666.186,1147.416 662.125,1141.779 662.638,1136.142C663.151,1130.505 660.983,1128.77 656.213,1123.133Z" style="stroke:black;stroke-width:0.22px;"/>
    </g>
    <g transform="matrix(3.988622,0.324725,-0.324725,3.988622,-1914.077524,-3616.752177)">
        <path d="M747.126,930.49C742.269,926.328 720.068,951.651 720.762,959.63C721.455,967.609 724.802,970.037 729.72,967.609C734.638,965.181 743.657,950.958 745.391,944.367C747.126,937.775 751.983,934.653 747.126,930.49Z" style="stroke:black;stroke-width:0.25px;"/>
    </g>
    <g transform="matrix(3.988622,0.324725,-0.324725,3.988622,-1914.077524,-3616.752177)">
        <path d="M767.94,957.722C761.349,961.191 758.227,967.782 759.961,974.72C761.696,981.658 765.859,988.596 771.756,988.596C777.653,988.596 785.285,985.474 785.979,980.271C786.673,975.067 791.876,964.313 786.326,959.804C780.775,955.294 774.531,954.253 767.94,957.722Z" style="stroke:black;stroke-width:0.25px;"/>
    </g>
    <g transform="matrix(3.988622,0.324725,-0.324725,3.988622,-2594.847026,-4598.080402)">
        <path d="M848.742,1083.89C841.804,1086.492 840.937,1088.66 840.07,1099.934C839.203,1111.209 844.257,1120.315 853.221,1122.483C862.185,1124.651 864.353,1112.076 863.486,1103.837C862.618,1095.598 855.68,1081.288 848.742,1083.89Z" style="stroke:black;stroke-width:0.25px;"/>
    </g>
</svg>
